<?xml version="1.0" encoding="utf-8"?>
<!-- Generator: Adobe Illustrator 27.9.1, SVG Export Plug-In . SVG Version: 6.00 Build 0)  -->
<svg version="1.1" id="Layer_1" xmlns="http://www.w3.org/2000/svg" xmlns:xlink="http://www.w3.org/1999/xlink" x="0px" y="0px"
	 viewBox="0 0 1210 251.27" style="enable-background:new 0 0 1210 251.27;" xml:space="preserve">
<g>
	<path d="M968.52,204.38c2.26-0.03,2.46,1.62,2.51,3.25c0.08,2.59,0.05,5.18,0.05,7.78c0,1.19-0.19,2.8,1.14,3.02
		c0.89,0.14,2.41-0.79,2.92-1.67c1.93-3.33,4.71-5.85,7.23-8.65c2.43-2.7,4.22-2.57,6,0.47c0.3,0.51,0.59,1.04,0.95,1.52
		c4.47,5.88,6.75,5.64,9.71-1.15c1.11-2.55,1.71-5.36,3.94-7.26c1.73-1.47,3.66-1.54,5.42-0.06c2.07,1.73,1.44,3.33-0.31,4.95
		c-3.3,3.06-4.38,7.52-6.83,11.16c-3.84,5.69-7.15,6.68-11.63,1.78c-3.96-4.33-6.58-5.42-9.12,0.89c-0.5,1.24-1.82,2.13-2.49,3.33
		c-1.42,2.52-3.36,4.02-6.32,3.35c-2.74-0.62-4.88-2.56-5.44-5.08c-1.13-5.08-0.58-10.32-0.14-15.49
		C966.19,205.09,967.15,204.48,968.52,204.38z"/>
	<path d="M110.32,201.83c-1.97,6.47,2.06,8.65,8.56,8.8c1.56,0.04,3.45,0.25,3.36,2.48c-0.08,2.09-1.8,2.26-3.45,2.48
		c-7.75,1.07-8.24,1.69-6.01,9.24c0.98,3.33,1.08,6.65,1.09,10.04c0,2.15-0.19,4.29-2.98,4.08c-2.43-0.18-3.22-2.09-3.05-4.33
		c0.39-5.07-1.34-9.84-1.88-14.77c-0.38-3.52-1.31-6.01-5.05-7.06c-3.25-0.91-3.34-3.43-0.41-4.18c4.74-1.2,3.81-4.48,3.71-7.44
		c-0.2-5.78,0.33-11.09,5.45-14.97c3.64-2.76,10.65-1.82,13.19,2.01c0.61,0.92,0.95,1.88,0.36,2.75c-0.57,0.83-1.49,0.88-2.63,0.67
		C110.46,189.69,110.26,189.89,110.32,201.83z"/>
	<path d="M1174.14,201.99c-1.64,5.86,1.42,8.51,7.73,8.61c1.67,0.03,4.07-0.12,4.02,2.45c-0.06,2.9-2.62,2.71-4.5,2.51
		c-6.08-0.63-6.78,2.76-5.59,7.36c1,3.88,1.84,7.73,1.58,11.78c-0.13,2.02,0.11,4.4-2.78,4.24c-2.29-0.13-3.47-1.84-3.27-4.2
		c0.44-5.07-1.32-9.86-1.74-14.81c-0.29-3.44-1.15-6.02-4.96-7.12c-3.35-0.96-2.93-3.66-0.26-4.29c4.48-1.06,3.54-4.06,3.63-6.9
		c0.16-5.35-0.28-10.62,4.55-14.82c3.49-3.04,6.65-3.16,10.31-1.25c2.05,1.07,5.22,2.22,3.9,5.04c-1.35,2.88-3.73,0.39-5.52-0.44
		c-4.81-2.23-6.06,1.32-6.99,4.55C1173.67,196.73,1174.14,199.06,1174.14,201.99z"/>
	<path d="M279.63,202.16c-1.75,6.17,2,8.38,8.33,8.45c1.56,0.02,3.55,0.19,3.58,2.29c0.04,2.41-1.97,2.52-3.84,2.72
		c-6.97,0.76-7.57,1.58-5.64,8.59c1.02,3.71,1.29,7.43,1.17,11.23c-0.06,2.01-0.55,3.71-2.94,3.57c-2.13-0.13-3.18-1.58-3.05-3.67
		c0.35-5.46-1.41-10.65-1.92-15.97c-0.37-3.87-2.16-5.57-5.53-6.69c-2.91-0.96-2.77-3.28-0.19-3.94c4.91-1.25,4.04-4.79,3.89-7.99
		c-0.26-5.64,0.65-10.66,5.36-14.46c3.65-2.95,11.5-1.77,13.63,2.28c0.33,0.62,0.47,1.62,0.2,2.21c-0.43,0.93-1.39,1.14-2.51,0.95
		c-2.64-0.44-4.75-4.28-8-1.07C279.87,192.92,279.59,193.38,279.63,202.16z"/>
	<path d="M347.95,207.81c0-5.58-0.09-11.17,0.05-16.74c0.05-1.93,0.2-4.47,2.93-4.39c2.91,0.09,2.34,2.7,2.37,4.59
		c0.03,1.79-0.21,3.59-0.23,5.38c-0.07,7.51-0.02,7.54,6.95,5.02c3.94-1.42,9.32,1.69,9.79,6.1c0.44,4.15,0.18,8.37,0.23,12.56
		c0.02,2.12-1.08,3.59-3.11,3.7c-2.36,0.13-2.85-1.82-2.9-3.71c-0.06-1.99,0.3-4.01,0.08-5.98c-0.29-2.53,1.45-5.97-2.22-7.2
		c-2.52-0.85-7.77,4.19-8.01,7.46c-0.23,3.18-0.18,6.38-0.26,9.58c-0.06,2.32-0.36,4.74-3.31,4.72c-3.28-0.02-2.77-2.85-2.8-4.92
		c-0.1-5.39-0.03-10.78-0.03-16.17C347.63,207.81,347.79,207.81,347.95,207.81z"/>
	<path d="M754.34,208.12c0-5.39-0.05-10.78,0.02-16.18c0.03-2.18,0.09-5.08,2.82-5.14c3.18-0.06,2.41,3,2.45,5.07
		c0.03,1.39-0.3,2.79-0.31,4.18c-0.02,2.39-0.64,5.15,1.03,6.97c2.33,2.55,4.05-0.78,6.06-1.38c3.91-1.18,9,1.47,9.53,5.74
		c0.54,4.34,0.28,8.78,0.27,13.17c-0.01,2.08-1.19,3.52-3.3,3.46c-1.95-0.06-2.6-1.71-2.64-3.41c-0.05-2.19,0.38-4.43,0.11-6.58
		c-0.31-2.45,1.47-6.76-2.59-6.64c-3.27,0.09-7.02,2.25-7.42,6.62c-0.29,3.18-0.09,6.39-0.22,9.59c-0.09,2.44-0.24,5.22-3.57,5.16
		c-3.43-0.06-2.5-3.06-2.56-5.02c-0.15-5.19-0.05-10.4-0.05-15.59C754.08,208.12,754.21,208.12,754.34,208.12z"/>
	<path d="M1041.62,220.55c0,0.6,0.01,1.2-0.01,1.8c-0.05,1.74,0.51,4.19-1.81,4.44c-2.7,0.28-3.66-2.11-3.82-4.43
		c-0.24-3.59-0.13-7.19-1.18-10.7c-0.53-1.75-0.87-3.83-2.95-4.09c-2.27-0.29-2.64,2.03-3.46,3.53c-2.31,4.25-3.59,8.86-4.7,13.53
		c-0.47,1.98-1.07,4.25-3.51,4.14c-2.34-0.1-3.07-2.19-3.34-4.33c-0.48-3.76-1.21-7.5-1.5-11.27c-0.24-3.1,0.51-5.65,4.17-2.62
		c2.08,1.72,2.73,0.39,3.47-1.16c0.34-0.72,0.45-1.58,0.88-2.22c2.04-3,4.38-6.27,8.26-6.07c3.62,0.19,5.7,3.41,7.12,6.57
		C1041.08,211.74,1041.56,216.12,1041.62,220.55z"/>
	<path d="M176.82,227.35c-2.52-0.2-5.9-0.61-8.73-2.71c-5.6-4.17-6.34-8.91-2.69-15.04c2.69-4.52,5.55-8.79,10.96-10.33
		c1.69-0.48,3.85-1.03,4.67,1.16c0.66,1.78-1.03,2.98-2.41,3.67c-2.61,1.3-4.54,3.18-5.9,5.7c-1.39,2.57-5.36,5.34-1.58,8.04
		c3.56,2.54,8.19,4.61,12.72,1.33c2.24-1.62,4.34-6.07,7.06-2.83c2.92,3.47-1.49,5.67-3.88,7.89
		C184.37,226.73,181.21,227.53,176.82,227.35z"/>
	<path d="M894.62,227.47c-4.35-0.32-7.53-0.77-10.23-2.65c-5.59-3.9-6.39-8.78-2.93-15.01c2.79-5.02,5.9-9.5,11.99-10.73
		c1.42-0.29,2.98-0.28,3.67,1.19c0.78,1.65-0.65,2.74-1.79,3.33c-4.12,2.14-6.58,5.68-8.69,9.59c-1.43,2.65-0.87,4.59,2.03,5.65
		c4.76,1.73,9.48,3.69,13.37-1.84c1-1.43,3.09-2.46,4.78-1.1c2.05,1.65,0.97,3.81-0.36,5.29
		C903.03,225.02,899.09,228.02,894.62,227.47z"/>
	<path d="M132.27,211.7c0.01-4.25,1.5-7.77,4.93-10.41c2.84-2.18,5.85-2.97,8.52-0.14c2.79,2.96,1.17,5.88-0.95,8.52
		c-0.37,0.45-0.93,0.74-1.38,1.13c-1.76,1.54-5.67,1.42-4.71,5.05c0.98,3.73,4.05,5.78,7.56,7.11c2.42,0.92,3.91,0.54,3.73-2.51
		c-0.09-1.5-0.52-3.62,2.07-3.2c2.41,0.4,3.85,2.04,3.79,4.63c-0.09,4.54-5.06,8.22-9.95,6.79C136.72,226,132.4,221.64,132.27,211.7
		z"/>
	<path d="M512.5,211.19c-0.3-4.19,2.38-7.51,5.59-10.23c2.73-2.3,6.15-2.39,8.56,0.54c2.28,2.77,1.22,5.62-1.25,7.93
		c-0.58,0.54-1.41,0.84-1.9,1.44c-1.48,1.78-6.01,1.52-4.46,5.14c1.48,3.46,4.17,6.33,8.31,7.13c2.15,0.42,3.07-0.32,2.66-2.51
		c-0.33-1.8,0.01-3.53,2.05-3.53c2.24,0,3.45,1.66,3.7,3.93c0.58,5.25-3.54,8.65-9.41,7.73
		C518.55,227.54,512.46,220.03,512.5,211.19z"/>
	<path d="M1151.92,199.38c1.28,7.94-0.86,17.22-1.27,26.56c-0.11,2.45-0.02,6.18-3.53,5.77c-3.37-0.39-3.16-4.15-2.96-6.78
		c0.76-10.08,2.57-20.09,1.97-30.25c-0.28-4.76-0.91-9.5-1.18-14.25c-0.13-2.2,0.04-4.83,3.05-4.88c2.79-0.04,2.67,2.6,2.81,4.47
		C1151.27,185.98,1151.52,191.95,1151.92,199.38z"/>
	<path d="M582.6,227.41c-9.01-0.24-14.53-4.51-14.84-11.19c-0.29-6.31,7.63-16.24,13.65-17.16c1.65-0.25,3.54-0.42,4.26,1.2
		c0.82,1.85-0.97,2.79-2.36,3.52c-2.36,1.23-4.17,3.08-5.78,5.11c-2.09,2.64-4.68,5.42-2.18,8.98c1.91,2.72,10.03,3.3,12.7,1.3
		c0.16-0.12,0.27-0.3,0.43-0.41c2.11-1.53,4.3-5.27,6.89-2.54c2.94,3.09-1.14,5.12-2.98,7.13
		C589.72,226.29,586.28,227.71,582.6,227.41z"/>
	<path d="M1112.06,211.43c0.03-4.58,2.4-8.05,5.79-10.62c2.78-2.11,6.25-2.28,8.48,0.9c1.99,2.83,0.99,5.71-1.58,7.94
		c-0.6,0.52-1.43,0.79-1.94,1.37c-1.5,1.68-5.91,1.52-4.08,5.28c1.78,3.65,4.63,6.57,9.07,6.95c2.07,0.18,2.05-1.34,1.77-2.87
		c-0.34-1.86,0.25-3.41,2.3-3.26c1.91,0.15,3.08,1.62,3.44,3.58c0.9,4.8-3.03,8.59-8.49,8.18
		C1118.68,228.26,1111.89,220.23,1112.06,211.43z"/>
	<path d="M698.71,229.01c-4.81,0.09-12.14-4.59-14.03-8.96c-2.86-6.61-1.97-13.68,2.27-17.95c2.12-2.13,4.61-3.13,7.62-2.34
		c2,0.52,2.97,2.05,3.16,3.94c0.31,3.02-0.84,5.32-3.52,7.04c-1.97,1.26-5.73,1.59-4.7,5.09c1.21,4.08,4.45,6.55,8.65,7.45
		c1.64,0.35,2.78-0.32,2.48-2.26c-0.28-1.86-0.51-4.13,2.09-3.76c2.56,0.37,4.2,2.42,3.52,5.3
		C705.32,226.45,702.91,228.83,698.71,229.01z"/>
	<path d="M346.57,114.94c3.85-0.05,5.02-2.86,6.32-5.07c2.07-3.51,3.59-4.22,6.55-0.68c3.72,4.44,7.38,3.66,8.98-2.16
		c0.65-2.35,2.1-3.12,3.42-4.3c1.7-1.54,2.78,0.36,3.93,1.26c2.05,1.6-0.57,1.48-0.89,2.17c-1.56,3.31-3.73,6.37-5.43,9.5
		c-3.04,5.61-6.3,3.74-9.28,1.33c-3.81-3.1-6.07-4.45-7.5,1.83c-0.6,2.63-3.33,4.45-6.04,3.71c-2.64-0.72-5.86-1.74-5.65-5.78
		c0.15-2.79,0.04-5.59,0.02-8.39c-0.01-1.77,0.45-3.23,2.49-3.38c2.42-0.18,3.05,1.4,3.06,3.44
		C346.58,110.6,346.57,112.77,346.57,114.94z"/>
	<path d="M920.33,197.4c0.77-4.31-1.48-10.1-1.59-16.06c-0.04-2.26-0.44-5.36,2.87-5.7c3.37-0.35,2.89,2.94,3.06,4.77
		c1.52,16.09,1.98,32.18-0.63,48.22c-0.28,1.74-0.87,3.13-2.81,3.28c-2.24,0.17-2.79-1.81-2.8-3.19
		c-0.01-5.54-0.34-11.22,0.75-16.58C920.05,207.76,919.98,203.48,920.33,197.4z"/>
	<path d="M327.57,194.15c2.01,0.26,3.89,0.13,4.51,1.98c0.74,2.22-1.22,2.74-2.66,3.15c-5.82,1.66-3.23,3.32-0.16,5.26
		c5.05,3.19,8.41,7.36,7.3,13.85c-0.97,5.65-5.54,5.97-9.67,5.83c-4.44-0.16-6.64-3.18-6.52-7.72c0.04-1.51,0.44-2.86,1.9-3.43
		c1.4-0.54,2.15,0.56,2.88,1.56c1.29,1.77,2.85,4.35,5.02,1.67c1.88-2.32-0.88-3.88-2.43-5.23c-1.19-1.03-2.67-1.76-4.1-2.48
		c-3.34-1.69-5.91-4.02-4.29-8C320.85,196.92,323.74,194.45,327.57,194.15z"/>
	<path d="M438.17,202.72c0.03,1.43-0.97,1.82-1.94,1.9c-6.58,0.52-6.53,5.35-6.5,10.04c0.02,2.78,0.5,5.56,0.57,8.35
		c0.05,1.94,0.25,4.31-2.72,4.35c-2.58,0.03-3.37-1.91-3.5-4.01c-0.2-3.38-0.24-6.77-0.2-10.16c0.03-2.75-0.21-5.04-3.89-3.66
		c-1.68,0.63-3.4,0.77-4.06-1.07c-0.78-2.17,0.96-3.46,2.72-3.89c4.77-1.16,6.03-3.96,4.7-8.44c-0.53-1.8-0.47-3.96,1.54-4.6
		c2.33-0.74,3.24,1.63,3.47,3.2c0.56,3.88,1.41,6.59,6.37,5.29C436.01,199.66,437.57,201.21,438.17,202.72z"/>
	<path d="M210.18,191.31c2.21,0.29,2.89,2.11,3.19,3.8c0.56,3.17,0.88,5.98,5.44,4.79c1.78-0.46,3.75,0.96,4.1,2.75
		c0.48,2.47-1.99,1.94-3.34,2.2c-3.73,0.72-4.76,3.46-4.84,6.58c-0.09,3.77,0.36,7.55,0.44,11.33c0.04,1.92,0.4,4.36-2.49,4.55
		c-2.92,0.19-3.64-2.03-3.77-4.36c-0.17-3.18-0.24-6.38-0.15-9.57c0.09-3.12-0.39-5.32-4.29-3.77c-1.49,0.59-2.87,0.49-3.59-1.02
		c-0.93-1.93,0.53-3.43,1.93-3.73c5.8-1.25,6.67-4.72,5.26-9.79C207.66,193.58,208.18,191.88,210.18,191.31z"/>
	<path d="M1119.73,104.85c2.37-0.83,3.99-1.86,5.63-1.87c3.39-0.03,6.78,0.36,6.47,5.27c-0.19,2.98,0.05,6-0.02,8.99
		c-0.03,1.46,0.49,3.43-2.13,3.34c-2.37-0.09-1.45-1.92-1.56-3.09c-0.15-1.59,0.2-3.24-0.1-4.78c-0.35-1.79,1.64-4.88-2.04-5.04
		c-3.57-0.16-5.86,1.87-6.2,5.49c-0.24,2.58-0.13,5.2-0.03,7.79c0.08,1.91-0.49,3.13-2.57,3.08c-1.99-0.04-3.39-0.67-3.34-3.13
		c0.16-8.39,0.06-16.79,0.38-25.17c0.07-1.82,1.33-4.26,3.41-4.36c3.27-0.15,1.93,2.79,2.05,4.49
		C1119.87,98.65,1119.73,101.45,1119.73,104.85z"/>
	<path d="M998.8,104.01c-0.68,3.18,1.11,5.67,6.05,5.95c1.11,0.06,3.18-0.12,3.09,1.93c-0.08,1.81-1.84,2.07-3.15,2
		c-5.12-0.26-5.58,2.2-4.36,6.4c0.76,2.63,0.81,5.49,0.97,8.26c0.08,1.51,0.23,3.51-2.07,3.58c-2.17,0.07-2.48-1.68-2.42-3.35
		c0.13-4.04-1-7.87-1.76-11.77c-0.45-2.34-0.35-4.68-3.65-5.21c-1.96-0.32-2.68-2.73-0.73-3.27c4.39-1.22,3.06-4.46,3.45-7.2
		c0.43-3.06-0.11-6.17,2.31-8.96c2.88-3.31,5.83-3.65,9.48-1.96c1.7,0.79,3.61,2.06,2.82,3.87c-0.76,1.75-2.69,0.66-4.11-0.13
		c-3.35-1.88-4.76,0.23-5.45,2.99C998.85,98.84,999,100.69,998.8,104.01z"/>
	<path d="M939.56,122.92c-1.8,1.98-3.56,2.04-3.63-0.92c-0.21-9.19-0.02-18.38-0.11-27.57c-0.02-2.08,1.03-3.18,2.76-2.94
		c1.72,0.24,1.29,2.1,1.28,3.37c-0.02,1.79-0.29,3.58-0.29,5.38c-0.02,3.46,1.65,4.41,4.92,3.42c5.66-1.71,9.32,1.09,9.39,6.99
		c0.02,2-0.17,4.02,0.04,5.99c0.29,2.69-1.33,3.81-3.41,3.79c-2.35-0.02-2.45-2.17-2.44-4c0.01-1,0.29-2.02,0.15-2.99
		c-0.29-2.12,1.22-5.63-1.88-5.84c-2.4-0.16-5.13,1.92-4.7,5.48C939.47,116.05,941.86,119.98,939.56,122.92z"/>
	<path d="M554.14,196.32c0.83,0.47,1.94,0.76,2.47,1.47c0.86,1.17-0.5,1.56-1.18,2.19c-6.44,5.97-6.43,5.98,0.2,12.25
		c3.51,3.32,4.04,9.08,0.49,12.35c-2.73,2.52-6.15,4.37-9.45,6.19c-1.75,0.96-3.79,0.18-4.63-1.59c-0.99-2.08,1.2-2.52,2.45-3.34
		c1-0.66,1.97-1.37,2.97-2.03c6.59-4.4,6.64-4.45,0.85-9.51c-3.48-3.04-4.11-6.55-2.59-10.79
		C547.14,199.48,550.38,197.77,554.14,196.32z"/>
	<path d="M1101.69,198.41c-1.17,1.04-2.35,2.02-3.45,3.09c-4.65,4.51-4.58,5.76,0.46,9.62c6.46,4.95,6.47,10.82-0.07,15.51
		c-2.09,1.5-4.31,2.85-6.61,4.01c-1.69,0.85-3.62,0.86-4.71-1.06c-1.07-1.88,0.3-2.9,1.78-3.73c0.87-0.49,1.76-0.94,2.58-1.49
		c6.78-4.54,6.78-4.55,1.02-10.5c-5.2-5.37-2.43-15.05,4.77-16.97C1099.23,196.41,1100.44,196.76,1101.69,198.41z"/>
	<path d="M386.12,110.66c0.42-3.64,3.01-5.47,5.68-7.39c2.44-1.75,4.92-0.69,5.78,0.94c2.41,4.57,4.95,9.19,4.81,14.75
		c-0.06,2.51-1.73,3.34-3.22,3.49c-2.1,0.21-1.39-2.11-1.4-3.17c-0.03-3.23-0.6-6.3-1.48-9.38c-0.31-1.1-0.91-1.9-1.83-2.14
		c-1.35-0.34-2.12,0.73-2.78,1.78c-2.27,3.6-2.43,8.04-4.84,11.67c-0.94,1.41-1.58,2.91-3.25,2.87c-2.32-0.05-2.38-2.46-2.68-3.92
		c-0.48-2.31-0.31-4.77-0.19-7.16c0.07-1.49-0.87-3.4,0.72-4.4C383.54,107.25,384.25,110.08,386.12,110.66z"/>
	<path d="M269.56,20.98c0.71,0.23,1.02,0.25,1.05,0.34c2.05,7.67,4.88,9.87,9.89,1.75c1.31-2.13,2.75-0.21,3.59,1.09
		c0.95,1.48,1.49,3.23,2.51,4.64c1.67,2.31,3.23,2.23,4.06-0.71c0.85-3.02,1.5-6.1,2.38-9.11c0.43-1.48,1.06-3.2,3.19-2.41
		c1.67,0.62,1.58,2.06,1.14,3.51c-1.09,3.6-2.08,7.24-3.29,10.81c-0.78,2.31-2.08,4.59-4.66,5c-2.73,0.43-4.26-1.64-5.47-3.81
		c-1.35-2.42-2.67-3.82-5.16-0.88c-1.23,1.45-2.32,4.37-5.08,2.83c-2.43-1.36-4.53-3.41-4.78-6.44
		C268.76,25.49,268.37,23.27,269.56,20.98z"/>
	<path d="M206.39,24.09c-0.03-8.6,8.8-16.58,17.34-15.63c1.37,0.15,2.73,0.24,3.77,1.44c0.91,1.04,2.36,1.96,1.58,3.49
		c-1.06,2.08-2.4,0.09-3.42-0.23c-7.66-2.44-13.98,2.53-14.44,8.64c-0.49,6.55,3.5,10.35,10.28,9.42c1.37-0.19,2.7-0.65,4.07-0.78
		c1.03-0.1,1.98,0.34,2.31,1.46c0.29,0.98,0.43,2.4-0.64,2.59c-4.58,0.82-9.17,3.2-13.87,0.53
		C209.14,32.61,206.39,29.21,206.39,24.09z"/>
	<path d="M462.44,117.69c-0.28-1.96-0.8-3.92-0.79-5.88c0.01-2.26,0.28-5.03,3.53-2.21c1.28,1.11,2.05,1.02,2.69-0.36
		c1.72-3.68,3.62-7.89,8.49-6.22c5,1.72,5.12,7.07,6.2,11.47c0.27,1.08-0.2,1.87-0.68,2.76c-0.92,1.7,0.78,5.43-2.39,5.03
		c-2.89-0.36-2.53-3.3-1.37-5.7c0.3-0.63,0.15-1.64-0.12-2.35c-0.85-2.25,0.09-6.05-3.18-6.27c-2.56-0.17-3.3,3.15-3.99,5.3
		c-0.74,2.3-1.71,4.32-3.09,6.29c-1.13,1.61-0.52,5.17-3.69,4.27C461.19,123.01,462.35,119.93,462.44,117.69z"/>
	<path d="M152.24,104.52c0.03,4.46,0.55,8.05-0.38,11.6c-1.61,6.15-3.92,7.69-10.43,6.91c-6.12-0.73-8.31-3.13-8.28-9.29
		c0.01-2.79,0.13-5.59,0.39-8.37c0.21-2.23,2.33-3.06,3.9-3.08c2.41-0.03,1.29,2.35,1.62,3.73c0.81,3.39-2.82,6.8,0.27,10.28
		c1.4,1.58,2.6,3.15,4.84,2.58c2.21-0.56,2.32-2.54,2.16-4.38C145.95,110.16,147.66,107.08,152.24,104.52z"/>
	<path d="M309.74,100.83c0.68,7.22-0.72,14.33-1.19,21.49c-0.12,1.82-0.5,4.1-2.75,3.85c-2.32-0.26-2.87-2.66-2.6-4.68
		c1.51-11.44,2.81-22.86,0.81-34.39c-0.33-1.91,0.19-4.61,2.44-4.75c1.95-0.12,2.2,2.46,2.34,4.2
		C309.18,91.3,309.43,96.07,309.74,100.83z"/>
	<path d="M636.68,111c-0.94-3.38,1.42-5.65,3.67-7.81c2.4-2.31,5.81-3.05,7.81-0.45c1.86,2.43,0.55,5.84-2.27,7.37
		c-2.08,1.13-3.73,1.74-3.34,4.63c0.41,3.07,3.14,3.15,4.94,4.37c0.62,0.42,2.54,1.42,2.35-0.86c-0.22-2.63,1.18-2.92,3.22-2.83
		c1.85,0.08,1.71,1.45,1.6,2.54c-0.2,1.95,0.75,3.92-1.98,5.53C647.44,126.57,635.16,119.04,636.68,111z"/>
	<path d="M274.05,114.03c0.11-5.81,4.24-9.13,8.3-12.32c1.03-0.81,3.35-1.46,4.36,0.05c0.99,1.48-0.29,2.96-1.6,4.01
		c-0.75,0.6-1.5,1.2-2.24,1.82c-2.53,2.08-4.34,4.68-2.79,7.9c1.16,2.42,8.26,2.36,10.5,0.07c1.31-1.34,2.56-2.98,4.27-1.23
		c1.68,1.73-0.08,3.19-1.19,4.58c-3.45,4.32-7.79,4.96-12.79,3.3C276.92,120.89,273.8,118.91,274.05,114.03z"/>
	<path d="M825.96,8.76c4.68,5,3.75,11.22,4.04,17.15c7.66-0.96,15.39-2.93,20.32,5.54c0.83,1.43,2.12,2.59,0.17,3.96
		c-2.2,1.55-2.55-0.63-3.44-1.77c-5.39-6.97-10.67-6.77-15.61,0.66c-0.92,1.38-1.84,2.91-3.61,2.5c-1.7-0.4-1.35-2.17-1.35-3.54
		C826.45,25.1,826.79,16.95,825.96,8.76z"/>
	<path d="M827.15,110.73c0.26-2.6,0.65-5.12,2.71-7.05c2.38-2.22,5.12-3.93,7.78-1.08c2.74,2.93,0.69,5.41-1.82,7.5
		c-1.39,1.16-4.34,1.33-3.59,3.99c0.78,2.79,2.99,4.5,5.82,5.43c1.62,0.53,2.72,0.62,2.94-1.45c0.15-1.39-0.5-3.76,2.24-2.64
		c1.94,0.79,3.24,2.37,2.04,4.77c-1.92,3.83-4.96,4.94-8.94,3.63C830.37,121.86,827.12,117.2,827.15,110.73z"/>
	<path d="M679.42,35.93c-1.59-1.75-1.6-3.54-1.79-5.34c-0.22-2.06,0.61-5.07-2.08-5.62c-3.27-0.67-2.99,2.91-4.11,4.76
		c-0.7,1.15-1.14,2.54-2.64,3.07c-2.05-1.42-1.33-3.67-1.92-5.42c-0.66-1.93-1.07-4.16-3.67-3.85c-2.2,0.26-3.27,2.11-3.7,4.17
		c-0.57,2.71-0.96,5.45-1.53,8.16c-0.22,1.02-0.96,1.8-2.13,1.64c-1.35-0.18-1.16-1.36-1.29-2.3c-0.82-5.86,1.87-10.49,5.56-14.53
		c2.55-2.8,5.12-0.24,7.45,0.91c1.28,0.63,1.75,2.29,3.92,1.14c5.37-2.85,8.48-1.33,9.32,4.56
		C681.2,30.03,682.25,33.21,679.42,35.93z"/>
	<path d="M1149.02,124.21c-2.67-1.47-7.2-2.12-8.43-5.72c-1.64-4.81-2.84-10.3,0.77-14.98c1.85-2.4,4.85-3.54,7.29-1.1
		c3.19,3.18,0.7,5.67-1.84,7.91c-4.12,3.63-3.99,5.97,0.79,8.51c1.63,0.87,4.77,3.15,4.63-1.81c-0.05-1.89,0.97-2.78,2.57-1.4
		c1.25,1.08,4.33,0.95,3.12,3.98C1157.08,121.71,1152.01,124.56,1149.02,124.21z"/>
	<path d="M916.51,123.03c-6.41-0.03-10.48-3.04-11.35-8.39c-0.72-4.39,4.73-11.92,9.04-13.18c1.21-0.35,2.89-1.23,3.62,0.56
		c0.62,1.52-0.43,2.4-1.86,3.12c-0.98,0.49-1.79,1.59-2.35,2.59c-1.42,2.53-6.54,4.71-3.36,7.6c2.5,2.27,7.32,3.96,11.34,0.5
		c1.43-1.23,3.33-3.99,5.26-1.49c1.93,2.51-0.95,3.7-2.56,5.42C922.02,122.2,919.48,122.86,916.51,123.03z"/>
	<path d="M1095.84,109.08c-1.78-1.24-2.61,0.31-3.73,0.29c-0.95-0.02-2.08,0.11-2.32-1.24c-0.18-1-0.25-1.91,1.13-2.24
		c4.26-1.01,5.44-3.88,4.79-7.94c-0.16-1-0.56-2.58,1.21-2.79c1.17-0.14,1.79,0.9,2.01,1.84c0.83,3.51,3.18,4.92,6.57,5.2
		c0.86,0.07,2.07,0.05,2.14,1.48c0.06,1.25-0.66,1.85-1.77,1.85c-4.87,0.02-4.25,3.46-4.19,6.59c0.04,2.19,0.19,4.4-0.05,6.56
		c-0.16,1.48,1.26,4.14-1.67,4.11c-2.1-0.02-4.07-1.32-4.11-3.96C1095.8,115.45,1095.84,112.08,1095.84,109.08z"/>
	<path d="M76.21,218.38c-1.61,0.31-1.85-0.84-2.14-2.07c-0.63-2.71-1.35-5.41-2.04-8.1c-0.86-3.38-4.1-8.02,3.84-6.44
		c1.17,0.23,2.92-1.83,4.21-3.04c2.27-2.13,4.85-3.49,7.93-3.84c1.89-0.21,3.05,0.95,3.57,2.58c0.61,1.92-1,2.44-2.3,2.79
		c-7.03,1.88-10.02,6.62-9.88,13.65C79.44,216.16,78.63,217.82,76.21,218.38z"/>
	<path d="M1011.51,36.38c-2.58-2.74-2.09-5.47-2.31-8c-0.12-1.44-0.07-3.03-1.63-3.48c-1.96-0.56-2.6,1.06-3.4,2.52
		c-1.01,1.82-1.21,4.27-4.12,5.44c-0.49-1.87-1.03-3.64-1.41-5.44c-0.43-2-0.76-4.26-3.45-3.91c-2.39,0.32-3.68,2.13-4.04,4.54
		c-0.39,2.54-0.81,5.07-1.25,7.6c-0.19,1.09-0.89,1.94-1.94,1.95c-1.66,0.01-1.59-1.41-1.7-2.59c-0.51-5.34,1.79-9.7,5.06-13.58
		c1.12-1.32,3.95-2.87,4.65-1.78c4.05,6.36,11.47-1.97,15.09,3.62C1013.49,27.04,1013.49,31.42,1011.51,36.38z"/>
	<path d="M813.85,204.54c-0.23-1.3,0.35-3.18,1.28-2.92c5.65,1.56,7.72-3.91,11.67-5.52c1.46-0.59,3.05-1.03,4.6-1.15
		c1.58-0.12,2.57,1.16,3.07,2.48c0.76,2-1.03,2.34-2.27,2.73c-6.49,2.04-10,6.22-9.97,13.19c0.01,2.34-0.69,4.83-3.3,4.98
		c-3.01,0.17-1.95-2.89-2.5-4.56C815.46,210.74,814.71,207.62,813.85,204.54z"/>
	<path d="M687.23,100.77c-0.72-3.02-1.39-4.99,0.62-5.55c2.11-0.58,2.55,1.73,2.78,3.08c0.44,2.63,1.37,3.76,4.24,3.26
		c1.18-0.2,2.95,0.44,3.04,2.2c0.1,1.96-1.53,2.11-2.94,2.07c-3.6-0.11-4.35,2.29-4.41,5.08c-0.06,2.99,0.24,5.98,0.27,8.97
		c0.01,1.38-0.05,3.01-2.02,3.01c-1.57,0-2.7-1.04-2.84-2.56c-0.21-2.38-0.1-4.79-0.14-7.18c-0.05-2.68,0.8-6.28-4.14-3.86
		c-1.08,0.53-2.24-0.5-2.26-1.34c-0.04-1.48,1.22-2.41,2.61-2.75C685.15,104.41,687.93,103.46,687.23,100.77z"/>
	<path d="M165.58,108.94c-1.59-0.93-2.61-0.12-3.69,0.3c-1.06,0.41-1.99,0.29-2.29-0.99c-0.23-0.97-0.39-2.21,0.79-2.55
		c4.38-1.26,6.28-3.75,4.87-8.38c-0.26-0.85,0.12-2.07,1.41-2.23c1.24-0.15,1.84,0.83,2.08,1.75c0.77,3.02,1.58,5.68,5.74,4.91
		c0.85-0.16,2.35,0.91,2.39,2.28c0.01,0.49-0.94,1.42-1.49,1.45c-5.83,0.27-4.91,4.56-4.96,8.21c-0.03,2.19,0.24,4.39,0.22,6.58
		c-0.01,1.42-0.27,2.82-2.31,2.68c-1.86-0.12-2.89-0.71-2.8-2.87C165.69,116.31,165.58,112.51,165.58,108.94z"/>
	<path d="M612.36,109.43c0.48-2.61-0.03-5.58,3.06-7.79c1.52,3.65,1.02,7.24,0.61,10.56c-0.51,4.2,2.55,6.29,4.96,6.49
		c2.8,0.23,4.88-2.63,4.87-6.16c-0.01-3.06-1.43-7.08,3.87-7.45c2,7.79-0.24,16.17-4.76,17.67c-5.79,1.92-10.4-0.25-12.54-5.89
		C611.04,114.4,611.09,111.92,612.36,109.43z"/>
	<path d="M573.47,33.57c-1-0.61-2.1-0.92-2.63-1.65c-3.76-5.17-7.01-3.45-10.25,0.54c-0.74,0.91-1.66,1.72-2.6,2.42
		c-1.02,0.76-2.25,1.01-3.25-0.01c-1.12-1.14-0.27-2.21,0.44-3.12c0.6-0.78,1.36-1.46,2.11-2.11c2.71-2.34,5.5-4.58-0.13-6.86
		c-1.04-0.42-2.86-1.35-1.94-3.05c1-1.85,2.54-1.06,4.08-0.34c3.47,1.64,7.04,4.23,10.37-0.4c0.64-0.89,1.71-0.75,2.6,0.06
		c0.89,0.8,1.19,1.82,0.31,2.55c-4.14,3.46-0.84,5.31,1.47,7.43c0.88,0.81,1.87,1.72,1.2,3.04
		C574.95,32.68,574.15,33.03,573.47,33.57z"/>
	<path d="M730.93,107.83c4.12-2.37,7.72-3.82,6.8-8.69c-0.23-1.2-1.16-3.24,1.25-3.92c2.38-0.68,3.86,1.98,3.91,2.61
		c0.29,3.62,2.26,4.08,5.32,4.36c2.12,0.2,1.91,3,0.4,3.25c-6.69,1.11-4.76,6.07-4.99,10.09c-0.09,1.58,0.1,3.18,0.03,4.77
		c-0.04,0.9,0.32,2.15-0.95,2.48c-1.48,0.39-2.1-0.82-2.59-1.88c-0.32-0.7-0.51-1.53-0.53-2.31
		C739.46,113.21,739.08,108.05,730.93,107.83z"/>
	<path d="M325.09,27.6c0.07-1.71,0.9-2.12,1.99-2.16c4.06-0.16,4.86-2.53,4.24-6.03c-0.82-4.61,0.57-8.3,4.98-10.38
		c2.11-0.99,4.33-0.42,4.82,1.86c0.67,3.11-1.88,1.3-3.1,1.49c-2.39,0.38-3.57,1.92-3.16,4.16c0.49,2.67-1.62,6.33,2.42,7.76
		c1.77,0.63,3.77,0.62,6.03,3.01c-7.65-0.09-8.4,3.78-6.61,9.01c0.55,1.6-0.44,2.18-1.52,2.62c-1.35,0.56-1.57-0.72-2.02-1.52
		c-0.48-0.84-1.4-1.79-1.27-2.55C332.83,29.39,330.55,26.94,325.09,27.6z"/>
	<path d="M611.49,32.43c3.2,0.76,4.94-1.42,7.17-2.01c0.93-0.25,2.16-0.39,2.53,0.81c0.19,0.6-0.09,1.76-0.56,2.08
		c-3.73,2.56-7.99,4.24-12.31,2.56c-3.85-1.5-3.08-5.53-3.05-8.9c0.03-2.97,1.56-4.91,4.14-5.96c2.82-1.15,5.07,0.69,7.14,2.09
		c1.9,1.29,1.12,3.33-0.05,4.72C615.15,29.43,613.39,30.72,611.49,32.43z"/>
	<path d="M731.91,33.81c0.38-3.22,0.14-6.01,1.1-8.31c2.08-4.97-0.69-4.21-3.69-3.65c-0.98,0.18-1.99,0.25-2.98,0.26
		c-1.45,0.01-3.59,0.94-3.71-1.52c-0.08-1.71,1.77-1.97,3.15-2c4.81-0.11,9.3-0.51,9.44-6.99c0.01-0.47,1.16-1.36,1.67-1.29
		c0.97,0.14,2.04,1.08,1.69,2.09c-1.47,4.24,1.48,3.37,3.73,3.45c0.91,0.03,2.2-0.35,2.36,1.02c0.07,0.6-0.58,1.81-1.04,1.88
		c-10.42,1.51-6.26,9.9-7.35,15.7c-0.32,1.69,0.61,4.23-1.95,4C731.42,38.19,732.82,34.91,731.91,33.81z"/>
	<path d="M954.38,27.41c-7.24-0.6-8,3.6-7.49,8.82c0.14,1.44-0.39,3.04-2.05,2.88c-1.15-0.11-1.6-1.62-1.59-2.9
		c0-0.2-0.04-0.41,0-0.6c1.15-5.73-0.73-8.92-7.06-7.95c0.03-1.41,0.69-2.04,1.46-2.06c4.7-0.16,6.03-2.4,5.12-6.93
		c-0.87-4.36,1-7.9,5.1-9.75c1.96-0.88,4.36-0.38,4.75,2.05c0.53,3.24-2.01,1.06-3.16,1.33c-2.54,0.58-4.15,2.48-3.51,4.67
		c0.74,2.52-1.24,6.36,2.99,7.48C950.72,24.91,952.87,24.62,954.38,27.41z"/>
	<path d="M301.55,208c0,0.24-0.1-0.57,0.02-1.35c0.36-2.31,0.22-5.3,3.19-5.76c3.57-0.55,3.96,2.85,4.62,5.15
		c0.98,3.42,1.38,7,2.06,10.51c0.46,2.37-0.63,3.81-2.75,4.61c-2.09,0.78-3.41-0.36-4.51-1.93
		C302.03,216.18,301.37,212.71,301.55,208z"/>
	<path d="M382.53,28.24c2.92-2.18,5.4-4.43,9.18-4.25c3.21,0.16,5.24,1.63,6.78,4.12c0.58,0.94,1.45,2.16,0.19,3.2
		c-1.35,1.12-2.06-0.19-2.91-0.97c-4.49-4.18-9.48-3.07-11.66,3.03c-0.64,1.78-1.02,2.77-2.86,2.9c-1.92,0.14-2.53-1.87-2.69-2.69
		c-1.26-6.18-0.02-12.71-2.64-18.76c-0.38-0.87,0.58-1.23,1.45-1.37c1.86-0.29,2.55,0.92,2.86,2.34
		C381.08,19.67,380.44,23.79,382.53,28.24z"/>
	<path d="M695.9,31.71c0.8,0.07,3.28-1,3.31,1.77c0.03,2.61-2.64,2.02-4.15,2.09c-3.82,0.2-7.9,0.08-9.18-4.57
		c-1.17-4.26-0.36-7.92,3.54-10.99c2.55-2.01,4.48-0.65,6.53-0.11c1.59,0.42,2.07,2.14,2.01,3.92c-0.09,2.79-2.54,2.58-4.11,3.52
		c-1.42,0.85-4.32,0.65-3.86,2.83C690.49,32.61,693.18,31.68,695.9,31.71z"/>
	<path d="M543.18,31.58c3.35,0.08,5.83-0.72,5.83,1.93c0,2.49-2.66,1.97-4.23,2.08c-4.41,0.29-8.72-0.43-9.79-5.59
		c-0.99-4.74,0.81-8.54,5.54-10.56c3.14-1.34,5.68-0.17,6.9,2.57c1.19,2.68-0.45,4.19-3.28,5.08c-1.62,0.51-4.8,0.62-4.4,3.07
		C540.17,32.69,542.98,31.56,543.18,31.58z"/>
	<path d="M810.25,125.77c-1.46-0.14-2.52-0.21-2.86-1.35c-0.32-1.05,0.08-2.02,1.06-2.51c0.87-0.44,2.01-0.45,2.77-1.01
		c3.22-2.36,5.56-4.46,1.11-8.41c-4.62-4.11-3.64-9.31,1.57-12.65c1.34-0.86,3.09-1.84,4.25-0.21c1.19,1.67-0.39,2.35-1.77,3.25
		c-3.25,2.14-4.26,4.85-0.26,7.26c3.3,1.99,4.61,4.75,3.54,8.28C818.22,123.15,813.61,123.99,810.25,125.77z"/>
	<path d="M671.35,100.24c-0.33,1.55-1.9,1.83-2.87,2.7c-2.71,2.45-3.61,4.88,0.02,7.16c3.22,2.03,5.19,4.81,3.76,8.45
		c-1.54,3.92-5.71,5.3-9.1,7.26c-0.76,0.44-2.04-0.01-2.35-1.2c-0.25-0.94-0.43-1.99,0.43-2.77c0.27-0.24,0.75-0.23,1.07-0.44
		c6.48-4.33,6.47-4.33,1.9-10.08c-3.16-3.98-0.84-11.07,4.04-12.31C669.52,98.69,670.61,99,671.35,100.24z"/>
	<path d="M900.99,12.06c0.54-1.41-1.22-4.09,1.24-4.4c2.29-0.28,2.11,2.41,2.36,4.07c0.38,2.52,0.69,4.64,4.25,4.21
		c2.48-0.3,2.6,2.66,1.4,2.92c-6.78,1.5-3.77,6.68-4.45,10.47c-0.4,2.2,1.15,6.21-1.27,6.27c-3.68,0.08-1.73-3.95-2.07-6.21
		c-0.3-1.95-0.05-3.99-0.11-5.98c-0.03-1.23-0.19-2.44-1.92-2.32c-1.36,0.1-3.3,2.06-3.85-0.59c-0.38-1.82,1.75-2.47,3.12-3.12
		C902.35,16.13,900.97,14.02,900.99,12.06z"/>
	<path d="M814.54,30.43c-1.22-1.46-2.38-3.04-3.74-4.44c-1.83-1.88-2.78-3.73-1.2-6.29c1.69-2.74,4.35-3.88,7.22-4.57
		c0.64-0.15,1.94,0.75,2.31,1.48c0.87,1.74-1.05,2.04-1.89,2.27c-5.61,1.5-4.65,3.81-1.54,7.38c4.57,5.25,2.44,10.48-4.66,11.04
		c-2.48,0.2-6.6,4.14-7.48-0.34c-0.61-3.11,4.25-2.84,7.05-3.33C812.33,33.33,814.15,32.95,814.54,30.43z"/>
	<path d="M1040.13,114.78c0.18-1.98,0.08-3.03,0.39-3.94c0.86-2.49-2.73-5.8-0.09-7.05c2.92-1.38,6.79-0.93,10.24-0.91
		c1.52,0.01,2.97,0.83,3.01,2.96c0.05,2.44-1.52,2.6-3.13,2.34c-3.95-0.64-5.4,1.24-5.59,4.88c-0.1,1.96-0.67,3.9-0.82,5.86
		c-0.12,1.53-0.37,2.89-2.21,2.82c-1.53-0.06-1.73-1.43-1.79-2.62C1040.07,117.35,1040.13,115.57,1040.13,114.78z"/>
	<path d="M771.09,25.45c-0.57-5.98,1.4-11.78,1.38-17.72c0-1.18-0.22-2.52,1.46-2.71c2.1-0.23,2.14,1.32,2.08,2.72
		c-0.28,5.93-0.73,11.84-0.88,17.77c-0.07,2.93-0.55,5.9,0.55,8.84c0.55,1.47-0.31,2.81-1.93,3.06c-1.7,0.27-2.6-0.83-2.64-2.45
		C771.04,31.8,771.09,28.62,771.09,25.45z"/>
	<path d="M885.36,112.11c0-0.4,0.01-0.8,0-1.19c-0.02-8.57,0.68-9.13,9.37-8.26c2.02,0.2,2.73,1.13,2.91,2.97
		c0.22,2.25-1,2.86-2.87,2.58c-4.13-0.62-4.29,2.08-4.73,5.06c-0.45,3.05,0.99,8.4-3.19,8.23c-3.17-0.13-0.89-5.34-1.49-8.2
		C885.29,112.92,885.36,112.51,885.36,112.11z"/>
	<path d="M974.14,24.98c-0.49-5.84,1.64-11.47,1.45-17.27c-0.04-1.27-0.03-2.5,1.57-2.68c2.25-0.25,1.99,1.49,1.93,2.81
		c-0.23,5.98-0.63,11.96-0.8,17.95c-0.08,2.77-0.4,5.56,0.52,8.33c0.6,1.79-0.23,3.21-2.29,3.29c-1.84,0.08-2.33-1.34-2.36-2.83
		C974.1,31.38,974.14,28.18,974.14,24.98z"/>
	<path d="M241.79,14.74c-0.3,5.5-1.68,12.61-0.44,19.78c0.28,1.61-0.39,2.92-2.12,2.87c-2.27-0.07-2.89-1.75-2.76-3.76
		c0.47-7.12,0.95-14.24,1.48-21.35c0.04-0.55,0.44-1.11,0.76-1.61c1.12-1.75-2.97-5.58,1.44-5.44c2.97,0.09,1.16,3.94,1.64,6.08
		C241.9,11.87,241.79,12.5,241.79,14.74z"/>
	<path d="M448.35,17.88c-1.64,2.12-3.16,1.64-4.43,1.57c-2.59-0.16-4.36,1.2-5.19,3.25c-0.97,2.39,1.77,2.7,2.99,3.76
		c5.12,4.42,4.9,9.03-0.39,12.52c-2.13,1.4-3.41,0.6-4.52-0.9c-1.15-1.55-0.18-2.74,1.41-3.05c6.57-1.28,2.95-3.84,0.72-5.99
		c-2.61-2.51-6.15-4.82-2.9-8.87C439.18,16.26,443.28,15.19,448.35,17.88z"/>
	<path d="M492.43,29.45c-0.19-2.87,0.2-6.78,2-7.1c4.39-0.77,9.24-3.54,13.56,1.24c2.65,2.94,2.54,6.03,2.43,9.39
		c-0.03,0.86-0.46,1.65-1.34,1.68c-1.08,0.05-1.82-0.72-1.96-1.77c-0.16-1.17-0.16-2.37-0.13-3.56c0.07-2.66-1.72-3.92-3.77-4.76
		c-2.35-0.96-3.66,0.78-4.82,2.43c-0.68,0.97-1.09,2.12-1.79,3.06c-0.93,1.24,0.23,4.32-2.64,3.71
		C491.6,33.26,492.66,30.83,492.43,29.45z"/>
	<path d="M367.34,16.22c1.3,0.42,3.61-0.13,3.57,2.03c-0.05,2.03-2.17,1.14-3.38,1.21c-2.16,0.12-3.94,0.76-4.89,2.78
		c-1.38,2.91,1.58,3.08,2.86,4.27c3.71,3.44,3.14,10.61-0.88,12.66c-1.82,0.93-3.16,0.61-4.12-0.84c-1.07-1.62-0.63-2.8,1.44-3.56
		c4.37-1.6,2.81-3.9,0.41-6.05c-2.14-1.91-5.34-3.15-3.75-7.08C360.19,17.71,363.76,17.09,367.34,16.22z"/>
	<path d="M876.45,26.13c-0.21-1.5-0.09-2.71,1.11-3.38c1.4-0.78,1.5,0.55,1.99,1.35c2,3.24,2.47-0.02,2.9-0.91
		c1.46-3.05,2.65-6.09,6.19-7.58c1.87-0.79,3.27-1.09,4.86,0.26c0.62,0.53,1.31,0.99,1.02,1.89c-0.72,2.29-2.46,0.9-3.82,1.17
		c-2.5,0.5-3.67,2.74-4.54,5.07c-0.55,1.48-1.21,3-2.17,4.23c-1.6,2.06-1.63,6.82-4.37,6C876.98,33.46,877.26,28.86,876.45,26.13z"
		/>
	<path d="M320.6,31.02c0.19,1.54-0.11,3.47-1.94,3.58c-1.58,0.1-1.88-1.78-1.72-3.26c0.41-3.82-1.42-6.47-4.99-6.89
		c-3.44-0.41-4.16,3.16-5.45,5.5c-0.79,1.44-0.32,4.27-2.84,3.71c-2.23-0.5-1.16-3.04-1.2-4.63c-0.18-6.5,1.98-8.4,9.12-8.43
		C315.97,20.6,320.67,25.93,320.6,31.02z"/>
	<path d="M705.58,33.63c-1.79-9.08-1.04-10.78,5.17-12.7c3.73-1.15,6.13,1.12,8.41,3.28c2.48,2.34,3.09,5.51,2.47,8.81
		c-0.18,0.98-0.99,1.75-2.13,1.64c-0.99-0.09-1.13-1.02-1.26-1.78c-0.14-0.78-0.08-1.59-0.14-2.39c-0.23-3.09-1.68-5.57-4.76-6.06
		c-3.19-0.5-4.22,2.57-5.47,4.71C707.11,30.44,707.68,32.37,705.58,33.63z"/>
	<path d="M627.32,33.9c-0.95,0.03-1.62-0.44-1.45-1.37c0.54-2.93-3.15-7.45-0.65-8.06c3.26-0.79,3.76-3.83,6.33-4.54
		c1.59-0.44,2.99-0.9,4.02,1.12c1.24,2.43-0.99,1.91-1.88,2.45c-2.76,1.66-4.56,3.8-4.32,7.26
		C629.48,32.23,629.09,33.57,627.32,33.9z"/>
	<path d="M1205,220.86c-0.8,2.94-2.27,5.14-5.26,4.91c-2.43-0.19-3.7-2.15-3.46-4.64c0.26-2.79,2.12-4.21,4.75-4.28
		C1203.71,216.78,1204.6,218.77,1205,220.86z"/>
	<path d="M649.74,33.32c-0.01,1.84-0.8,3.23-2.4,2.91c-4.38-0.88-3.65-5.03-4.47-8.02c-0.41-1.49,0.54-3.95,2.14-3.53
		C649.41,25.8,647.74,30.74,649.74,33.32z"/>
	<path d="M966.13,33.14c0.2,1.92-0.1,3.55-1.99,3.04c-3.91-1.05-3.35-4.9-4.07-7.76c-0.44-1.75,0.63-4.55,2.44-3.7
		C965.83,26.28,965.44,30.33,966.13,33.14z"/>
	<path d="M425.25,30.94c0.02-0.34-0.28-1.53,0.18-2.22c1.19-1.79-0.5-5.94,2.97-5.38c2.59,0.42,1.28,3.62,0.98,5.7
		c-0.11,0.73-0.32,1.58-0.07,2.2c1.04,2.5,0.05,4.79-2.16,4.88C423.74,36.24,426.29,33.06,425.25,30.94z"/>
	<path d="M353.12,27.78c-0.32,1.29-0.35,3.05-1.18,4.28c-0.9,1.34,1.21,4.34-1.68,4.03c-2.39-0.26-2.31-2.88-2.02-4.87
		c0.22-1.54,0.88-3.01,1.14-4.55c0.26-1.52-0.05-3.77,2.07-3.54C354.07,23.41,352.61,25.96,353.12,27.78z"/>
	<path d="M306.29,187.76c1.93,0.22,3.93,1.13,4.28,3.17c0.36,2.12-1.58,2.94-3.47,2.96c-2.21,0.03-3.91-1.1-4.05-3.36
		C302.94,188.76,304.27,187.77,306.29,187.76z"/>
	<path d="M939.56,122.92c0.72-3.28-2.15-7.31,2.08-9.85C941.08,116.38,944.17,120.47,939.56,122.92z"/>
	<path d="M351.18,11.09c1.6,0.37,1.9,1.42,1.85,2.72c-0.08,1.89-1.41,2.2-2.87,2.2c-1.01,0-2.19-0.38-1.84-1.63
		C348.73,12.88,349.61,11.53,351.18,11.09z"/>
	<path d="M427.71,16.08c-2.06-0.16-2.91-0.66-2.61-1.85c0.38-1.51,1.09-3.14,2.94-2.96c1.08,0.11,2.11,1.23,1.71,2.58
		C429.35,15.23,428.39,16.18,427.71,16.08z"/>
	<path d="M645.2,13.59c-0.61-0.08,0.9-0.22,0.54,1.6c-0.19,0.96-1.09,1.89-2.2,1.48c-0.82-0.31-1.83-1.1-2.03-1.87
		C641.19,13.47,642.37,13.3,645.2,13.59z"/>
	<path d="M29.12,205.13c-4.48-2.78-9.42-4.25-13.65-4.22c-8.98-0.09-11.49,1.6-10.12,6.35c3.28,11.33,4.48,22.96,5.34,34.65
		c0.14,1.92-0.32,4.47,2.66,4.35c2.87-0.12,3.39-2.37,3.1-4.78c-0.6-4.93-1.11-9.89-1.99-14.77c-0.53-2.96-0.2-4.49,3.28-4.55
		c4.11-0.07,7.52-2.34,11-4.29C34.82,214.46,35.08,208.83,29.12,205.13z M18.87,215.48c-2.94,1.25-5.04-0.43-6.49-2.65
		c-1.11-1.69-1.24-4.02,0.03-5.62c1.8-2.26,4.22-1.47,6.47-0.37c2.64,1.3,5.3,2.56,8.97,4.32
		C24.16,212.95,21.56,214.33,18.87,215.48z"/>
	<path d="M669.98,204.73c-4.54-2.24-9.16-3.86-15.94-3.78c-0.52,0.08-2.73,0.22-4.83,0.77c-2.47,0.64-3.92,2.44-2.84,4.96
		c4.85,11.27,3.76,23.46,5.63,35.19c0.29,1.85-0.45,4.55,2.58,4.38c2.9-0.17,3.11-2.62,2.88-4.94c-0.49-4.96-1.05-9.9-1.54-14.86
		c-0.19-1.92-0.95-4.09,2.4-4.16c4.33-0.09,7.87-2.44,11.66-4.23c2.89-1.37,4.62-2.86,4.43-6.16
		C674.22,208.68,673.11,206.28,669.98,204.73z M660.15,215.58c-2.7,1.15-4.65-0.37-6-2.44c-1.25-1.9-1.46-4.3-0.04-6.11
		c1.63-2.08,3.91-1.26,5.95-0.3c2.64,1.25,5.26,2.54,9.19,4.45C665.39,213.06,662.82,214.44,660.15,215.58z"/>
	<path d="M808.85,213.6c-1.36-2.74-3.58-1.19-5.11-0.35c-3.34,1.84-6.58,3.63-11.94,2.96c3.29-2.26,5.52-3.54,7.45-5.18
		c3.22-2.74,5.12-6.27,3.37-10.45c-1.2-2.87-8.6-4.17-11.85-2.55c-5.78,2.89-8.11,10.33-5.54,17.73c1.97,5.69,5.75,7.35,13.05,6
		c3.02-0.56,5.62-1.92,8.18-3.46C808.22,217.25,810.05,216.01,808.85,213.6z M790.31,206.58c0.25-2.67,2.1-3.66,4.53-3.67
		c1.21,0,2.37,0.38,2.24,1.99c-0.97,2.07-1.95,4.06-4.49,4.33C790.68,209.43,790.17,208.1,790.31,206.58z"/>
	<path d="M66.01,213.55c-1.19-2.23-3.1-1.37-4.67-0.58c-3.36,1.69-6.5,3.97-11.13,3.29c1.28-2.81,3.81-3.36,5.64-4.78
		c4.3-3.34,5.92-9.37,3.2-11.76c-5.2-4.57-12.46-3.31-15.89,2.76c-2.86,5.07-2.28,13.54,1.69,17.39c4.27,4.14,9.28,2.38,14.01,0.75
		c1.85-0.64,3.48-1.88,5.24-2.79C65.9,216.89,67.12,215.63,66.01,213.55z M47.14,206.61c0.44-2.48,2.33-3.61,4.78-3.67
		c1.26-0.03,2.71,0.37,2.14,1.96c-0.74,2.06-2.02,3.9-4.28,4.4C47.86,209.24,46.87,208.14,47.14,206.61z"/>
	<path d="M636.57,222.37c-1.62-3.04-2.39-6.28-3.05-9.61c-0.81-4.13-1.12-9.06-7.7-6.03c-1.25,0.57-2.15-0.71-3.07-1.43
		c-1.61-1.26-3.34-2.17-5.31-1.91c-4.03,0.11-6.61,1.88-10.34,6.46c-2.33,2.86-2.52,5.65-0.74,8.78c1.77,3.12,4.4,4.5,7.93,4.12
		c3.54-0.38,6.37-1.97,8.58-4.83c1.07-1.38,2.51-3.04,4.41-2.61c2.14,0.49,2,2.73,2,4.46c0,1.91,0.86,3.46,1.67,5.04
		c0.84,1.63,1.88,3.28,4.14,2.12C637,225.93,637.52,224.16,636.57,222.37z M613.88,217.49c-1.96,0.64-3.13-1.23-3.04-2.75
		c0.22-3.63,2.8-5.71,6.1-6.26c1.8-0.3,3.93,0.58,4.34,3.2C620.49,215.64,616.98,216.47,613.88,217.49z"/>
	<path d="M101.39,110.84c-0.54-3.27-4.56-5.59-8.41-4.58c-2.78,0.73-5.21,2.76-7.76,4.2c-0.95-8.63,1.53-17.82-3.72-26.25
		c-0.72,0.78-1.2,1.06-1.2,1.34c-0.04,11.54-0.04,23.08-0.04,34.62c0,1.05,0.34,2.42,1.37,2.35c5.64-0.43,11.21,2.15,17-0.5
		C104.69,119.24,101.96,114.31,101.39,110.84z M94.98,118.53c-2.9,0.66-5.81,1.11-8.52-0.66c1.78-2,3.48-3.81,5.08-5.72
		c1.37-1.64,3-1.79,4.79-0.98c1.67,0.75,1.98,2.2,2.02,3.94C98.41,117.58,96.77,118.13,94.98,118.53z"/>
	<path d="M945.23,198.39c-4.64-0.46-9.28,5.44-9.36,13.42c0.52,3.32,2.2,7.6,5.55,11.33c2.49,2.78,5.55,2.68,8.23,1.67
		c5.29-2,5.55-7.36,6.55-11.93C957.47,207.08,951.16,198.97,945.23,198.39z M946.18,218.41c-3.53-0.29-4.19-4.86-4.31-8.27
		c-0.09-2.59,0.34-5.91,3.75-5.57c3.14,0.31,4.95,2.99,4.91,6.53C949.67,213.94,949.98,218.72,946.18,218.41z"/>
	<path d="M454.16,198.45c-4.82-0.29-9.01,5.31-8.98,12.75c0.66,3.57,1.48,7.79,4.47,11.27c2.55,2.96,5.95,3.69,9.16,2.29
		c5.29-2.31,5.83-7.5,6.35-12.56C465.74,206.34,459.83,198.8,454.16,198.45z M455.24,218.41c-3.68-0.22-3.71-5.08-4.03-8.25
		c-0.24-2.39,0.14-5.76,3.61-5.55c3.11,0.19,4.49,2.84,4.58,6.06C458.44,213.52,459.87,218.69,455.24,218.41z"/>
	<path d="M603.77,129.45c-1.77-2.47-4.31,1.46-7.6,2.4c0.86-7.07,1.53-13.37,2.49-19.64c0.18-1.16,0.92-2.26,0.09-3.32
		c-2.72-3.48-4.78-7.31-10.83-5.64c-5.34,1.48-6.38,5.34-6.43,9.2c-0.06,4.81,2.5,9.19,8.13,8.86c6.09-0.36,4.82,2.56,3.79,6.17
		c-0.58,2.04-3.05,3.23-2.37,5.77c0.5,1.87-1.17,4.14,1.83,5.59c2.84,1.38,3.95-0.49,5.56-1.78c0.46-0.37,0.89-0.8,1.29-1.24
		C601.51,133.87,605.86,132.39,603.77,129.45z M594.61,111.75c-0.42,3.63-3.24,3.9-5.63,5.25c-1.7-1.41-4.9-1.65-4.02-4.78
		c0.73-2.58,2.75-4.95,5.51-4.9C592.46,107.36,595.01,108.23,594.61,111.75z"/>
	<path d="M236.3,118.64c-0.65-3.1-1.6-6.14-2.39-9.22c-0.59-2.28-2.34-3.56-4.32-2.89c-1.62,0.55-2.67,0.32-3.71-0.56
		c-4.13-3.53-7.11-1.35-10.82,1.25c-4.45,3.13-3.18,6.92-2.03,10.36c0.85,2.56,8.45,2.4,10.8-0.22c1.61-1.79,3.61-2.75,6.63-5.34
		c0,3.39-0.14,5.34,0.03,7.26c0.24,2.72,2.61,3.54,4.57,3.33C237.2,122.4,236.6,120.08,236.3,118.64z M218.9,114.88
		c-1.66,0.25-2.6-0.84-2.33-1.68c0.7-2.25,1.09-5.14,4.58-4.98c1.66,0.08,3.19,0.28,3.32,2.65
		C223.78,113.63,221.62,114.46,218.9,114.88z"/>
	<path d="M542.93,119.72c-3.03-4.49,2.27-13.41-9.12-14.09c-4.81-0.29-7.83-0.72-11.93,2.09c-4.32,2.96-4.35,6.04-1.98,9.39
		c2.52,3.55,6.26,2.91,9.52,0.72c2.39-1.61,4.34-3.9,8.12-4.71c-0.98,3.26-0.76,5.86,1.04,8.24c0.76,1,1.48,2,2.88,1.27
		C542.6,122.04,543.62,120.75,542.93,119.72z M523.74,115.79c0.28-4.21,0.91-7.18,5.05-7.54c1.57-0.14,3.09,0.68,2.94,2.14
		C531.28,114.85,527.13,114.27,523.74,115.79z"/>
	<path d="M877.23,119.68c-1.2-4.44-3.57-8.43-4.85-12.89c-0.66-2.31-3.46,1.03-5.31,0.23c-1.07-0.46-2-1.27-3-1.9
		c-4.93-3.13-7.93,0.5-10.73,3.44c-2.64,2.78-2.91,6.39,0.07,9.12c3.34,3.07,6.96,2.02,10.26-0.55c0.63-0.49,1.2-1.06,1.8-1.59
		c4.18-3.68,5.24-3.35,6.33,1.95c0.24,1.16,0.33,2.4,0.8,3.46c0.46,1.04,1.13,2.3,2.64,1.93
		C876.84,122.49,877.38,121.26,877.23,119.68z M858.3,115.3c-1.52,0.48-2.87-1.12-2.49-2.45c0.63-2.21,1.74-4.5,4.65-4.6
		c1.69-0.06,3.18,0.31,3.35,2.59C863.24,113.72,860.64,114.56,858.3,115.3z"/>
	<path d="M67.63,106.96c0-0.31-1.65-1.06-1.93-0.84c-2.42,1.91-3.9-0.04-5.69-1.12c-4.91-2.95-7.88,0.71-10.63,3.64
		c-2.6,2.77-2.81,6.38,0.15,9.06c3.31,3,6.93,2,10.21-0.53c0.63-0.48,1.17-1.07,1.78-1.58c1.03-0.86,1.73-2.58,3.3-2.18
		c1.9,0.48,1.59,2.47,1.91,3.95c0.25,1.16,0.2,2.43,0.67,3.47c0.55,1.2,1.27,2.61,3.12,1.95c1.38-0.49,1.57-1.65,1.63-2.6
		C71.39,115.35,67.68,111.81,67.63,106.96z M54.43,115.28c-1.49,0.46-2.92-1.09-2.52-2.43c0.65-2.17,1.73-4.49,4.63-4.6
		c1.68-0.06,3.17,0.29,3.37,2.52C59.37,113.71,56.77,114.55,54.43,115.28z"/>
	<path d="M324.62,100.24c-4.88,0.57-6.67,4.45-6.93,8.94c-0.35,5.92,3.75,12.05,7.98,12.25c5.16,0.25,9.16-4.57,9.35-11.29
		C335.13,106.3,328.78,99.76,324.62,100.24z M329.01,111.61c-0.23,1.83,0.69,5.28-2.93,4.76c-3.66-0.52-3.5-4.43-3.73-7.18
		c-0.13-1.58,0.21-4.16,3.16-3.96C329.66,105.52,329.13,108.51,329.01,111.61z"/>
	<path d="M1022.61,100.1c-3.22,0.18-6.86,5.8-6.6,10.19c0.35,6.01,4.34,11.01,8.56,11.2c5.1,0.23,6.77-5.22,7.73-12.16
		C1032.19,105.91,1025.89,99.92,1022.61,100.1z M1027.34,110.24c-0.23,2.29-0.42,5.91-2.83,5.95c-3.45,0.06-2.84-4-3.88-6.34
		c0.46-1.91,0.26-4.64,2.75-4.58C1025.98,105.32,1027.62,107.5,1027.34,110.24z"/>
	<path d="M599.26,21.56c-2.53-3.48-15.11-2.98-17.45,0.63c-2.49,3.82-0.05,16.16,5.04,20.69c-3.38-8.25,0.74-9.87,6.72-10.28
		c2.18-0.15,3.83-1.96,5.4-3.52C601.4,26.65,601.08,24.07,599.26,21.56z M596.6,25.38c-0.52,3.7-4.42,3.83-7.62,3.69
		c-1.75-0.08-4.46,0.98-4.29-2.34c0.21-4.21,3.44-4.16,6.51-4.16C593.57,22.52,597,22.49,596.6,25.38z"/>
	<path d="M762.63,100.13c-3.72-0.1-7.06,4.46-7.04,9.61c0.02,6.7,3.5,11.54,8.42,11.72c4.23,0.15,7.29-4.79,7.27-11.75
		C771.26,105.67,766.35,100.23,762.63,100.13z M763.39,115.79c-2.78-0.02-2.46-4.08-3.9-6.17c-0.63-0.91,2.05-4.76,3.45-4.34
		c1.89,0.56,4.85,1.81,4.77,5C767.38,113.12,765.28,115.81,763.39,115.79z"/>
	<path d="M117.41,100.26c-5.15-0.12-5.98,4.32-7.14,8.02c-0.91,2.89,0.81,5.41,1.76,7.98c1.16,3.12,2.97,5.56,6.87,5.19
		c3.92-0.37,5.33-3.41,6.59-6.38c0.6-1.41,0.46-3.13,0.72-5.27C126.41,106.71,121.27,100.35,117.41,100.26z M118.23,116.2
		c-1.8-0.18-4.08-3.48-4.39-6.64c-0.3-2.98,2.19-4.26,3.71-4.31c2.56-0.08,4.04,2.1,3.87,4.33
		C121.02,112.67,121.42,116.52,118.23,116.2z"/>
	<path d="M446.19,100.45c-4.58-1.77-5.46,2.34-6.74,5.38c-0.02,2.51-0.04,5.02-0.06,7.53c3.25,8.44,7.48,10.39,12.49,5.62
		c2.43-2.31,2.86-5.69,2.99-8.75C455.12,104.47,450.55,102.13,446.19,100.45z M446.89,116.15c-2.41-0.11-4.93-2.8-4.8-6.3
		c-0.59-3.07,1.54-4.73,3.91-4.66c2.35,0.07,4.39,2.02,4.25,4.84C450.11,112.61,449.52,116.27,446.89,116.15z"/>
	<path d="M484.93,22.99c-0.19-2.34-3.05-3.34-5.13-2.96c-4.24,0.78-6.88,3.81-8.11,7.84c-0.74,2.44,0.61,4.22,2.79,5.27
		c0.66,0.32,1.77,0.66,2.22,0.35c3.88-2.7,6.51-2.49,7.49,2.74c0.21,1.15,1.37,1.39,2.39,1.12c1.22-0.33,1.11-1.43,1.14-2.78
		C486.11,31.11,485.27,27.17,484.93,22.99z M476.39,29.06c-0.92,0.01-0.94-1.14-0.74-1.9c0.79-2.97,2.87-3.45,6.44-2.65
		C480.27,26.83,479.12,29.02,476.39,29.06z"/>
	<path d="M758.49,20.68c-0.9-0.38-1.87-0.61-2.52-0.82c-3.7,0.19-9.11,5.76-8.65,9.03c0.47,3.38,2.59,5.9,6.13,4.14
		c3.55-1.76,5.74-2.71,6.11,2.5c0.06,0.78,0.79,1.99,1.97,1.86c0.67-0.07,1.44-0.61,1.87-1.16
		C764.01,35.47,759.39,21.07,758.49,20.68z M751.76,29.08c-0.95-0.13-1.04-0.98-0.58-1.77c1.36-2.38,3.03-4.13,6.61-2.61
		C755.91,26.86,754.91,29.51,751.76,29.08z"/>
	<path d="M253.53,19.66c-3.55-0.05-4.9,2.26-4.94,5.37c-0.05,4.12,4.42,8.63,8.55,8.36c3.79-0.25,6.96-1.8,7-6.42
		C264.18,23.11,259.36,19.75,253.53,19.66z M256.8,29.76c-2.23-0.2-4.16-1.84-4.38-4.14c-0.21-2.14,1.95-1.15,3-1.47
		c2.15-0.02,4.44,0.4,4.82,2.49C260.59,28.51,258.55,29.92,256.8,29.76z"/>
	<path d="M860.59,19.63c-3.22,0.26-4.22,2.51-4.19,5.42c0.07,4.56,3.91,8.55,8.39,8.38c4.1-0.15,6.66-2.62,7.29-6.53
		C872.64,23.43,865.86,19.21,860.59,19.63z M863.89,29.7c-1.91-0.38-3.78-1.4-3.78-3.81c-0.01-2.74,2.2-1.37,3.46-1.76
		c1.96,0.28,4.36,0.6,4.26,2.92C867.77,28.64,865.83,30.09,863.89,29.7z"/>
</g>
</svg>
