<?xml version="1.0" encoding="utf-8"?>
<!-- Generator: Adobe Illustrator 27.9.1, SVG Export Plug-In . SVG Version: 6.00 Build 0)  -->
<svg version="1.1" id="Layer_1" xmlns="http://www.w3.org/2000/svg" xmlns:xlink="http://www.w3.org/1999/xlink" x="0px" y="0px"
	 viewBox="0 0 1263.07 68.76" style="enable-background:new 0 0 1263.07 68.76;" xml:space="preserve">
<g>
	<path d="M23.87,54.62c-12.4,0.06-20.3-9.17-18.65-21.81C6.69,21.46,17.78,11.1,29.46,10.18c4.63-0.37,10.1,2.69,11.35,6.46
		c0.45,1.38,0.85,3.04-0.4,4.16c-1.17,1.05-2.37,0.28-3.54-0.55c-6.56-4.64-13.39-4.01-19.08,1.97c-4.92,5.17-6.19,11.46-4.57,18.2
		c1.17,4.87,7.76,7.87,14.87,7.06c2.14-0.24,4.24-0.91,6.38-1.07c2.36-0.18,4.34,0.65,4.68,3.3c0.32,2.54-1.59,2.73-3.49,3.11
		C31.75,53.59,27.91,54.71,23.87,54.62z"/>
	<path d="M102.12,37.75c0.68-1.45-1.7-5.26,1.68-5.52c3.59-0.28,2.8,3.59,3.24,6.03c0.23,1.26,0.51,2.58,1.09,3.71
		c1.54,3,3.43,3.95,5.78,0.6c1.5-2.15,3.01-4.31,4.69-6.32c3.1-3.72,5.52-3.45,7.68,0.97c1.14,2.33,1.82,4.89,3.58,6.91
		c0.93,1.07,1.49,2.84,3.32,2.52c1.7-0.3,2.14-2.01,2.59-3.33c0.94-2.77,1.59-5.64,2.36-8.46c0.69-2.52,1.26-5.07,2.11-7.53
		c0.68-1.95,1.88-3.69,4.42-2.6c2.15,0.93,2.63,2.6,1.94,4.86c-1.66,5.46-2.98,11.02-4.76,16.44c-0.69,2.11-2.07,4.09-3.47,5.88
		c-2.69,3.45-7.31,3.52-10.34,0.33c-0.56-0.59-0.98-1.32-1.46-1.98c-4.84-6.74-4.82-6.73-10.63-0.89c-1.59,1.6-3.21,4.12-5.77,2.87
		c-3.96-1.92-6.92-5.09-8.02-9.46C101.83,41.39,102.12,39.85,102.12,37.75z"/>
	<path d="M968.28,36.64c0.2-5.86,0.12-13.34-1.64-20.73c-0.42-1.78-1.1-4.5,1.34-5.03c2.18-0.47,3.28,1.96,3.72,3.88
		c1.56,6.84,2.95,13.72,2.17,20.8c-0.35,3.17-0.28,4.68,4.06,3.39c7.5-2.23,15.18-2.75,22.14,2.31c3.06,2.22,4.37,5.69,6.74,8.4
		c1.51,1.72,0.17,3.51-1.47,4.5c-1.93,1.16-3.23-0.2-3.89-1.79c-1.86-4.5-5.47-6.83-9.96-8.08c-7.69-2.14-10.75-0.72-14.47,6.27
		c-1.33,2.5-2.38,6.37-5.94,5.57c-3.61-0.82-2.67-4.74-2.78-7.56C968.18,45.14,968.28,41.71,968.28,36.64z"/>
	<path d="M1257.99,46.67c-0.51,2.49,1.58,7.27-2.69,7.3c-2.82,0.02-1.86-4.84-2.15-7.63c-0.03-0.32,0.03-0.66-0.03-0.98
		c-0.56-2.94,0.08-7-3.59-7.85c-4.5-1.03-4.02,3.73-5.54,6.12c-0.26,0.41-0.4,0.89-0.63,1.32c-1.11,2.1-1.7,5.32-4.83,4.68
		c-2.72-0.56-1.28-3.59-1.83-5.49c-0.98-3.38-0.14-8.52-5.34-8.64c-4.82-0.1-6.26,4.07-6.89,8.2c-0.59,3.86-0.9,7.78-2.4,11.45
		c-0.49,1.21-0.87,2.73-2.54,2.54c-1.68-0.18-2.38-1.4-2.55-3.09c-0.84-8.46,1.71-15.84,7.62-21.93c3.76-3.88,8.85-3.72,12.72,0.15
		c2.32,2.33,3.92,3.74,7.08,0.65c3.78-3.69,10.34-1.48,12.53,3.7C1258.18,40.14,1257.92,43.27,1257.99,46.67z"/>
	<path d="M740.46,46.41c-0.48,2.41,1.59,7.34-2.3,7.48c-3.45,0.13-2.08-4.83-2.51-7.65c-0.07-0.48,0.04-1-0.08-1.46
		c-0.68-2.73-0.01-6.59-3.62-7.33c-4.23-0.87-3.94,3.49-5.32,5.81c-0.42,0.7-0.67,1.49-1.02,2.22c-0.91,1.9-1.61,4.48-4.19,4.2
		c-3.17-0.34-1.75-3.28-2.16-5.16c-0.28-1.27-0.34-2.6-0.73-3.84c-0.77-2.44-1.19-5.53-4.75-5.3c-3.34,0.21-5.45,2.45-6.2,5.53
		c-1.08,4.42-1.74,8.95-2.76,13.39c-0.34,1.5-0.7,3.62-2.88,3.38c-2.28-0.25-2.36-2.27-2.52-4.15c-0.63-7.58,1.92-14.15,6.69-19.9
		c3.89-4.69,9.56-5.01,13.77-0.73c2.42,2.46,4.03,3.44,7.1,0.51c3.82-3.66,10.32-1.4,12.48,3.85
		C740.59,40.08,740.49,43.03,740.46,46.41z"/>
	<path d="M550.43,28.24c2.61,0.52,5.23,1.95,7.81,3.4c3.24,1.81,6.15,2.3,8.79-0.99c0.69-0.86,1.76-1.51,2.77-2.05
		c1.63-0.87,3.28-0.63,4.56,0.69c1.58,1.62,0.61,3.19-0.74,4.17c-4.38,3.14-2.93,5.78,0.42,8.49c1.15,0.93,2.11,2.08,3.17,3.12
		c1.21,1.19,2.56,2.53,1.1,4.18c-1.45,1.64-3.44,2.04-5.31,0.53c-1.92-1.55-3.8-3.17-5.53-4.92c-2.35-2.39-4.55-2.24-6.88-0.05
		c-2.76,2.59-5.54,5.17-8.36,7.7c-1.86,1.67-4.25,2.8-6.1,0.62c-1.6-1.89-0.29-3.98,1.45-5.55c2.32-2.1,4.61-4.22,6.88-6.37
		c1.85-1.75,1.99-3.19-0.65-4.47c-2.06-1-3.99-2.31-5.86-3.64c-1-0.72-2.33-1.6-1.26-3.18C547.46,28.73,548.61,28.15,550.43,28.24z"
		/>
	<path d="M821.44,49.85c0.83-4.47,1.55-8.97,2.52-13.41c0.69-3.15,1.01-5.17-3.58-3.77c-3.11,0.95-6.54,0.9-9.84,1.23
		c-1.77,0.18-3.61-0.09-3.78-2.17c-0.17-2.09,1.24-3.12,3.41-3.34c3.62-0.37,7.22-0.97,10.85-1.36c3.37-0.36,5.01-2.08,4.87-5.43
		c-0.04-0.98,0.02-1.95,0.01-2.93c-0.04-2.47,0.57-5.19,3.37-5.02c3.38,0.21,3.23,3.05,2.42,5.63c-1.38,4.37,0.48,5.52,4.68,4.74
		c1.96-0.36,4.8-1.52,5.36,1.55c0.58,3.17-2.39,3.69-4.65,3.66c-6.01-0.1-7.32,3.59-7.67,8.36c-0.43,5.81-2.15,11.54-0.66,17.45
		c0.52,2.08-0.8,3.37-2.86,3.86c-2.37,0.56-2.83-1.39-3.32-2.77C821.85,54.16,821.39,52.05,821.44,49.85z"/>
	<path d="M200.24,51.52c0-1.54-0.12-2.53,0.02-3.49c0.59-4.08-1.15-5.77-5.29-5.17c-0.49,0.07-1,0.03-1.49,0
		c-1.74-0.1-4.22,0.4-4.35-1.98c-0.13-2.23,2.43-2.33,4.1-2.75c6.51-1.61,6.45-1.56,5.76-8.28c-0.69-6.7-0.4-13.13,6.23-17.35
		c2.41-1.54,4.93-2.07,7.48-0.62c1.6,0.91,3.11,2.34,2.36,4.37c-0.87,2.36-2.69,1.2-4.12,0.52c-1.96-0.92-3.09,0.08-4.23,1.41
		c-2.53,2.95-3.23,14.19-1.06,17.35c0.71,1.04,1.67,1.49,2.91,1.58c1.48,0.11,2.99,0.22,4.43,0.53c1.59,0.34,3.76,0.65,3.59,2.65
		c-0.14,1.69-2.05,2.75-3.77,2.49c-6.59-1-7,2.94-6.61,7.63c0.01,0.16,0.01,0.33-0.01,0.49c-0.35,3.37,1.18,8.92-3.54,8.76
		C198.36,59.51,200.93,54.03,200.24,51.52z"/>
	<path d="M1150.33,50.76c0-1.14-0.11-2.29,0.02-3.42c0.4-3.37-0.94-4.7-4.49-4.56c-2.28,0.09-6.14,1.28-6.47-1.63
		c-0.37-3.28,3.67-2.88,6.1-3.31c3.85-0.69,5.04-2.08,3.95-6.28c-2.34-9.02,0.38-16.02,6.47-19.39c3.38-1.87,6.38-1.49,8.82,1.49
		c0.72,0.88,0.94,2.15,0.18,3.2c-0.7,0.97-1.84,0.88-2.71,0.42c-4.66-2.48-5.97,1.11-7.13,4.05c-1.75,4.44-0.11,9.02,0.34,13.51
		c0.13,1.24,1.4,2.16,2.94,2.22c1.16,0.05,2.37-0.02,3.47,0.29c1.93,0.55,5.03,0.32,4.76,3.1c-0.2,2.06-2.78,2.63-4.88,2.37
		c-4.25-0.53-5.68,1.39-5.4,5.33c0.17,2.43-0.04,4.89-0.08,7.33c-0.04,2.45-1.4,4.49-3.66,4.46c-2.09-0.03-2.22-2.49-2.27-4.31
		c-0.05-1.63-0.01-3.26-0.01-4.89C1150.29,50.76,1150.31,50.76,1150.33,50.76z"/>
	<path d="M278.42,43.11c3.54-2.58,6.39-5.81,10.87-6.68c7.05-1.37,12.82,1.54,15.14,7.9c0.59,1.62,0.5,2.92-0.79,3.94
		c-1.8,1.43-2.69-0.31-3.59-1.32c-5.97-6.73-12.02-6.53-17.53,0.72c-1.39,1.82-2.52,3.83-3.87,5.68c-1,1.37-2.35,2.51-4.2,1.98
		c-1.99-0.57-2.73-2.08-2.72-4.13c0.02-5.05,0.05-10.11-0.21-15.15c-0.22-4.21-0.53-8.51-2.88-12.21c-1.57-2.46-0.71-4.2,1.52-5.15
		c2.47-1.06,3.38,0.89,4.27,2.81c2.49,5.39,0.85,11.32,2.45,16.83C277.32,39.83,277.28,41.47,278.42,43.11z"/>
	<path d="M1083.49,32.03c-0.47,0.14-1.25,0.39-2.05,0.59c-1.38,0.35-3.07,1.38-3.91-0.5c-0.88-1.96,0.15-3.81,2.07-4.33
		c6.38-1.73,6.26-5.73,5.01-10.98c-0.61-2.58-2.35-7.51,1.71-7.92c4.14-0.42,2.91,4.77,3.79,7.57c0.38,1.21,0.01,2.63,0.33,3.87
		c0.69,2.64,1.56,5.04,5.38,3.87c1.5-0.46,3.93-1.18,4.3,1.55c0.34,2.5-1.13,4.25-3.68,4.24c-4.39-0.03-4.61,2.55-4.51,5.8
		c0.15,5.05,0.06,10.11,0.07,15.16c0,1.72-0.24,3.48-2.45,3.56c-2.28,0.08-2.49-1.64-2.49-3.4c-0.02-5.05-0.07-10.11-0.13-15.16
		C1086.92,33.89,1086.75,31.9,1083.49,32.03z"/>
	<path d="M936.79,58.72c-2.5,0.02-3.94-0.33-4.44-2.04c-0.57-1.98,0.57-3.29,2.28-3.74c3.51-0.92,7.12-1.49,10.68-2.25
		c4.58-0.98,5.49-3.22,2.73-6.86c-1.39-1.83-2.95-3.53-4.39-5.31c-3.13-3.86-3.02-7.3,0.41-10.85c2.33-2.41,5.21-4.12,8.42-5.01
		c2.27-0.63,4.48,0.36,5.25,2.63c0.86,2.54-1.6,2.71-3.21,3.34c-0.61,0.24-1.28,0.35-1.9,0.56c-6.33,2.1-6.76,3.74-2.28,8.79
		c1.09,1.23,2.3,2.37,3.25,3.7c3.63,5.11,2.12,11.64-3.69,13.85C945.45,57.2,940.6,57.82,936.79,58.72z"/>
	<path d="M60.13,17.23c0.52,8.97-2.17,17.76-1.52,26.75c0.2,2.74-0.29,5.49,0.79,8.2c0.98,2.48-0.2,4.25-2.78,4.61
		c-2.41,0.34-4.23-0.74-4.56-3.35c-0.14-1.12-0.11-2.28-0.06-3.41c0.57-12,0.5-24.05,2.99-35.9c0.29-1.37,0.11-2.97-0.33-4.32
		c-0.82-2.51-0.35-4.45,2.41-4.74c3.16-0.34,3.11,2.13,3.08,4.34C60.11,12.01,60.13,14.62,60.13,17.23z"/>
	<path d="M890.33,17.84c0.48,8.83-2.22,17.79-1.53,26.94c0.18,2.42-0.22,4.86,0.76,7.23c1,2.45,0.02,4.3-2.57,4.74
		c-2.67,0.46-4.71-0.77-4.74-3.62c-0.05-5.21-0.36-10.5,0.46-15.6c1.29-8.04-0.21-16.32,2.51-24.22c0.42-1.22-0.29-2.85-0.62-4.26
		c-0.52-2.19,0.37-3.64,2.49-3.98c2.29-0.37,3.28,0.99,3.25,3.19C890.3,11.35,890.33,14.45,890.33,17.84z"/>
	<path d="M1206.02,17.15c0.5,9.13-2.15,18.09-1.52,27.24c0.18,2.58-0.26,5.17,0.77,7.71c1,2.47-0.1,4.28-2.68,4.67
		c-2.68,0.4-4.67-0.88-4.66-3.73c0.02-5.69,0.25-11.38,0.5-17.07c0.41-9.18,2.63-18.25,1.76-27.5c-0.2-2.09,0.91-3.16,2.69-3.42
		c1.95-0.28,3.13,0.77,3.14,2.82C1206.03,10.96,1206.02,14.05,1206.02,17.15z"/>
	<path d="M255.8,24.44c0.73,0.09,1.56,0.15,2.37,0.31c1.43,0.29,3.08,0.37,2.98,2.49c-0.1,2.15-1.67,2.11-3.19,2.09
		c-2.85-0.04-5.67,0.15-8.11,1.77c-3.86,2.57-3.85,5.37,0.18,7.63c4.1,2.31,6.53,5.44,6.25,10.23c-0.3,5.08-3.58,8.24-7.52,10.87
		c-1.86,1.24-3.83,0.75-5.58-0.43c-1.37-0.93-1.77-2.29-1.46-3.87c0.48-2.44,2.34-2.69,4.45-2.99c5.11-0.72,6.11-3.41,2.77-7.27
		c-0.95-1.11-2.16-2.02-3.3-2.95c-6.28-5.17-6.04-10.39,0.7-15.03C249.14,25.34,252.34,24.67,255.8,24.44z"/>
	<path d="M375.15,49.76c-0.08,4.07-3.48,7.51-7.82,10.21c-1.87,1.16-3.88,0.54-5.54-0.78c-1.29-1.02-1.56-2.44-1.14-3.98
		c0.58-2.13,2.25-2.59,4.22-2.62c1.92-0.03,3.69-0.5,4.54-2.39c0.99-2.2-0.57-3.73-1.82-5.18c-0.95-1.11-2.19-1.98-3.33-2.93
		c-5.76-4.77-5.82-9.5,0.04-14.11c3.96-3.11,8.52-4.13,13.56-3.09c1.61,0.33,2.31,1.1,2.14,2.65c-0.16,1.48-1.26,1.78-2.5,1.76
		c-3.18-0.04-6.35,0.02-9.05,1.96c-3.59,2.58-3.54,5.23,0.3,7.38C372.64,40.83,375.19,43.7,375.15,49.76z"/>
	<path d="M153.96,44.12c0-2.44,0.1-4.84,0.77-7.24c0.8-2.87,1.55-5.21,5.26-3.09c1.21,0.69,2.17-0.1,3.21-0.62
		c7.41-3.7,17.13,1.23,18.62,9.54c0.4,2.22,0.17,4.55,0.22,6.82c0.03,1.69-0.7,2.96-2.49,3.03c-2.2,0.09-2.64-1.46-2.69-3.28
		c-0.06-1.95-0.13-3.91-0.44-5.83c-0.6-3.67-3.19-5.61-6.61-6.45c-3.35-0.82-5.17,1.32-6.76,3.8c-1.42,2.22-2.62,4.48-3.08,7.12
		c-0.34,1.97-1.02,4.06-3.65,3.79c-2.51-0.25-2.25-2.41-2.34-4.17C153.92,46.41,153.96,45.26,153.96,44.12z"/>
	<path d="M777.35,44.08c0.02-2.44,0.14-4.83,0.79-7.24c0.8-2.95,1.65-5.12,5.3-3.02c1.21,0.7,2.17-0.14,3.2-0.66
		c7.35-3.7,17.13,1.3,18.59,9.61c0.39,2.22,0.17,4.55,0.21,6.82c0.03,1.7-0.75,2.92-2.53,2.99c-1.84,0.07-2.52-1.15-2.63-2.85
		c-0.16-2.43-0.19-4.91-0.75-7.26c-0.76-3.16-3.33-4.77-6.37-5.48c-3.1-0.73-4.96,1.09-6.48,3.44c-1.34,2.07-2.63,4.15-3.15,6.58
		c-0.48,2.23-0.67,5.03-3.86,4.65c-3.04-0.36-2.09-3.18-2.31-5.15C777.27,45.71,777.35,44.89,777.35,44.08z"/>
	<path d="M449.41,44.28c0.29-2.25,0.45-4.53,0.92-6.74c0.62-2.98,1.24-6.2,5.69-3.64c0.96,0.55,1.85-0.19,2.75-0.62
		c5.94-2.87,9.7-2.21,14.98,2.55c3.41,3.08,5.48,11.11,3.86,14.98c-0.49,1.17-1.32,1.88-2.64,1.78c-1.31-0.1-2.17-0.82-2.27-2.14
		c-0.16-1.95-0.18-3.9-0.34-5.85c-0.34-4.1-2.81-6.56-6.66-7.56c-3.86-1.01-5.65,1.72-7.37,4.44c-1.33,2.1-2.25,4.3-2.71,6.75
		c-0.33,1.78-1.04,3.65-3.41,3.51c-2.57-0.15-2.43-2.23-2.52-4.01c-0.06-1.14-0.01-2.28-0.01-3.42
		C449.59,44.3,449.5,44.29,449.41,44.28z"/>
	<path d="M1052.73,39.34c2.91-2.7,4.04-5.99,5.34-9.09c1.77-4.2,5.27-6.16,9.19-7.68c2.22-0.86,4.22-0.04,6.03,1.34
		c1.2,0.92,1.55,2.05,1.04,3.45c-0.54,1.47-1.67,2.07-3.15,1.65c-5.1-1.45-7.27,1.75-9.08,5.46c-2.44,4.99-4.76,10.04-7.23,15.02
		c-0.77,1.56-1.53,3.56-3.87,3.15c-2.06-0.36-2.05-2.45-2.48-3.9c-0.94-3.11-1.67-6.3-2.28-9.49c-0.36-1.93-0.56-4.35,1.72-5.11
		c2.9-0.97,2.7,2.09,3.7,3.54C1051.94,38.07,1052.19,38.49,1052.73,39.34z"/>
	<path d="M668.15,29.86c2.12-0.19,3.47,0.38,3.96,1.99c0.6,1.97-1.01,2.62-2.42,3c-6.53,1.75-9.63,5.82-9.2,12.51
		c0.14,2.12-0.61,4.1-3.01,4.35c-3.27,0.33-2.16-2.58-2.69-4.18c-0.56-1.68-0.72-3.49-1.2-5.2c-0.94-3.36-3.38-7.41,3.71-6.35
		c1.61,0.24,2.46-1.5,3.45-2.52C662.9,31.21,665.47,29.97,668.15,29.86z"/>
	<path d="M691.89,51.36c0.19,2.05-1.04,3.09-2.6,3.86c-1.7,0.84-2.85-0.12-3.82-1.32c-3.28-4.05-4.26-8.74-3.63-13.76
		c0.19-1.48,1.06-2.81,2.79-3.05c1.72-0.23,3.04,0.76,3.53,2.16C689.55,43.25,690.67,47.32,691.89,51.36z"/>
	<path d="M1186.45,51.55c0.08,1.81-1,2.74-2.36,3.54c-1.64,0.96-2.88,0.25-3.9-0.96c-3.37-3.99-4.4-8.67-3.87-13.7
		c0.18-1.7,1.06-3.18,3.03-3.35c1.69-0.14,2.96,0.92,3.44,2.35C1184.13,43.43,1185.24,47.51,1186.45,51.55z"/>
	<path d="M232.84,40.24c-0.01,4.47-1.4,8.66-2.78,12.84c-0.5,1.52-1.44,2.76-3.23,2.34c-1.77-0.41-2.17-1.94-1.87-3.5
		c0.99-5.12,2.1-10.22,3.13-15.34c0.28-1.37,1.26-1.96,2.48-1.96c1.33,0,2.13,0.9,2.25,2.19C232.92,37.94,232.84,39.09,232.84,40.24
		z"/>
	<path d="M351.79,41.14c-0.06,3.3-1.36,7.34-2.66,11.39c-0.53,1.66-1.26,3.32-3.32,2.89c-2.41-0.5-2.22-2.59-1.86-4.37
		c0.86-4.32,1.9-8.6,2.76-12.92c0.33-1.65,0.43-3.54,2.65-3.47c2.59,0.09,2.42,2.2,2.43,4.02C351.8,39.16,351.79,39.65,351.79,41.14
		z"/>
	<path d="M233.01,19.05c0.04,2.95-0.82,5.2-4.33,5.28c-2.1,0.05-3.05-1.16-2.83-3.1c0.32-2.81,0.85-5.77,4.49-5.98
		C232.8,15.11,233,17.18,233.01,19.05z"/>
	<path d="M351.87,18.14c0.04,3.78-0.74,5.93-3.96,6.18c-2.33,0.18-3.43-1.01-3.17-3.23c0.31-2.63,0.83-5.4,4.14-5.81
		C351.74,14.92,351.85,17.16,351.87,18.14z"/>
	<path d="M684.21,19.36c1.71,0.24,3.81,0.6,3.86,2.75c0.04,1.61-1.27,3.09-3.26,2.9c-1.73-0.17-3.15-1.07-3.37-2.98
		C681.23,20.17,682.27,19.36,684.21,19.36z"/>
	<path d="M1182.83,22.14c-0.88,1.72-1.71,3.26-3.75,2.84c-1.91-0.4-3.39-1.49-3.1-3.69c0.26-1.96,1.82-2.08,3.38-1.84
		C1181.07,19.71,1182.38,20.51,1182.83,22.14z"/>
	<path d="M617.43,35.86c-1.31-4.59-5.06-6.73-11.77-6.74c-0.83,0-1.66,0-2.49,0c-1.49,0-2.99-0.02-4.48,0
		c-7.78,0.13-11.61,3.79-11.61,11.34c0,5.86,0.29,11.72,2.36,17.31c0.92,2.48,1.33,6.76,4.59,5.85c3.67-1.02,1.09-4.66,0.45-7.1
		c-1.28-4.9-0.74-5.78,4.54-5.8c4.42-0.02,8.55-0.84,12.28-3.26C616.7,43.97,618.68,40.21,617.43,35.86z M603.95,43.98
		c-1.94,0.37-3.99,0.67-5.92,0.43c-2.21-0.27-5.38,0.52-5.61-3.27c-0.21-3.43,1.49-5.7,4.67-6.65c1.86-0.56,3.94-0.41,5.92-0.58
		c3.48,0.11,8.04-0.53,8.51,3.86C611.97,42.06,607.62,43.27,603.95,43.98z"/>
	<path d="M769.69,50.9c-0.34-3.26-3.17-3.22-5.8-2.88c-1.8,0.23-3.63,0.7-5.41,0.56c-1.58-0.13-3.57-0.62-3.99-2.41
		c-0.48-2.02,1.43-2.7,2.93-3.37c1.66-0.74,3.34-1.44,5.05-2.05c3.5-1.24,5.96-2.98,4.29-7.2c-1.44-3.63-6.04-5.86-9.7-4.6
		c-7.13,2.45-10.92,9.04-9.55,16.58c1.08,5.93,5.35,8.66,14.51,8.65c0.37-0.03,1.71-0.04,3.01-0.24
		C767.05,53.63,770.02,53.96,769.69,50.9z M754.92,36.71c0.23-1.45,1.55-1.95,2.89-2.03c0.88-0.05,2.27-0.15,1.89,1.31
		c-0.36,1.35-1.78,1.71-2.79,1.99C755.74,37.93,754.77,37.66,754.92,36.71z"/>
	<path d="M537.86,50.77c-0.42-3.54-3.67-3.05-6.37-2.64c-1.79,0.27-3.59,1-5.4,0.36c-1.34-0.48-3.13-0.71-3.42-2.45
		c-0.29-1.82,1.31-2.51,2.64-3.11c2.4-1.09,4.86-2.06,7.32-3.03c2.67-1.06,3.25-3.01,2.61-5.55c-1.09-4.33-6.34-6.94-10.57-5.19
		c-7.89,3.25-9.87,8.16-8.85,16.51c0.73,5.93,5.35,8.56,13.6,8.43c1,0,2.04,0.2,2.97-0.04C534.57,53.5,538.3,54.5,537.86,50.77z
		 M525.56,34.74c0.97-0.19,1.87-0.12,2.54,0.63c-0.32,1.67-1.51,2.21-2.79,2.52c-1,0.24-2.21,0.05-2.16-1.19
		C523.21,35.5,524.39,34.97,525.56,34.74z"/>
	<path d="M441.67,50.87c-2.23-4.96-4.06-9.99-3.87-15.51c0.07-2.21-1.54-3.12-3.18-3.94c-6.64-3.33-17.51,4.13-17.77,12.91
		c0.1,2.04,1.19,4.35,3.76,5.69c2.93,1.53,5.81,1.11,8.39-0.83c3.28-2.46,5.69-2.94,6.07,2.21c0.03,0.47,0.29,0.93,0.45,1.39
		c0.87,2.36,1.73,5.01,5.1,3.81C443.92,55.42,442.58,52.9,441.67,50.87z M424.49,44.82c-0.56-0.13-1.38-0.58-1.48-1.01
		c-0.64-2.73,0.87-4.69,2.84-6.27c1.87-1.5,4.09-2.08,6.48-1.26c0.32,0.11,0.47,0.72,0.57,0.9
		C432.97,39.45,426.39,45.26,424.49,44.82z"/>
	<path d="M870.31,51.01c-1.94-4.35-3.63-8.74-3.91-13.54c-0.27-4.69-3.21-7.39-7.84-7.16c-5.69,0.28-13.21,8.08-13.1,14.17
		c0.14,2.05,1.24,4.18,3.6,5.47c3.11,1.69,6.07,1.11,8.81-0.95c3.21-2.41,5.42-2.43,5.76,2.26c0.05,0.63,0.37,1.25,0.59,1.86
		c0.81,2.24,1.78,4.55,4.85,3.53C872.4,55.55,871.24,53.08,870.31,51.01z M853.59,44.88c-1.75,0.03-2.29-0.88-2.19-2.46
		c0.2-3.22,4.02-6.5,7.58-6.45c1.04,0.16,2.47-0.34,2.52,1.47C861.56,39.14,855.47,44.84,853.59,44.88z"/>
	<path d="M648.01,47.47c-1.3-2.99-3.66-1.32-5.51-0.57c-3.16,1.29-6.04,3.39-11.06,2.72c3.27-2.33,5.96-3.67,7.85-5.73
		c2.38-2.6,4.99-5.75,2.11-9.5c-2.19-2.85-8.64-3.57-11.78-1.68c-5.15,3.09-6.98,11.13-4.02,17.58c2.17,4.72,6.6,6.21,13.14,4.19
		c2.19-0.67,4.25-1.78,6.35-2.74C646.93,50.9,649.07,49.93,648.01,47.47z M629.9,40.63c0.42-2.26,1.87-3.68,4.25-3.76
		c1.28,0.13,2.79,0.17,2.42,1.75c-0.56,2.34-2.2,3.96-4.73,4.22C630.39,42.99,629.68,41.78,629.9,40.63z"/>
	<path d="M77.76,30.11c-4.27-0.08-6.73,2.54-6.79,7.22c-0.1,7.5,5.49,13.26,12.96,13.35c6.13,0.07,11.07-4.4,11.2-10.13
		C95.25,34.94,87.51,30.29,77.76,30.11z M88.72,41.59c-1.16,2.24-3.07,4.85-6.71,3.51c-1.78-0.66-3.3-1.63-4.29-3.15
		c-0.85-1.31-2.14-2.84-1.17-4.44c0.85-1.4,2.68-0.93,4.32-1.19c1.29,0.22,2.84,0.24,4.2,0.76C87.15,37.85,90.27,38.61,88.72,41.59z
		"/>
	<path d="M1021.84,30.11c-4.26-0.07-6.71,2.55-6.77,7.24c-0.09,7.51,5.51,13.26,12.97,13.33c6.13,0.06,11.07-4.42,11.18-10.14
		C1039.34,34.93,1031.57,30.28,1021.84,30.11z M1033.04,41.32c-0.6,2.88-4.77,4.8-7.5,3.51c-1.3-0.61-2.54-1.56-3.49-2.62
		c-1.08-1.2-2.18-2.84-1.54-4.41c0.73-1.8,2.81-1.22,4.68-1.44c1.04,0.17,2.41,0.2,3.64,0.62
		C1030.91,37.72,1033.71,38.12,1033.04,41.32z"/>
</g>
</svg>
