<?xml version="1.0" encoding="utf-8"?>
<!-- Generator: Adobe Illustrator 27.9.1, SVG Export Plug-In . SVG Version: 6.00 Build 0)  -->
<svg version="1.1" id="Layer_1" xmlns="http://www.w3.org/2000/svg" xmlns:xlink="http://www.w3.org/1999/xlink" x="0px" y="0px"
	 viewBox="0 0 1425.29 82.9" style="enable-background:new 0 0 1425.29 82.9;" xml:space="preserve">
<g>
	<path d="M380.68,42.11c0.13-1.8,0.34-3.6,0.36-5.4c0.02-1.67,0.51-3.09,2.35-3.12c2.09-0.03,2.71,1.51,2.71,3.36
		c0,2.79,0,5.58,0.04,8.36c0.01,0.93-0.34,2.14,0.88,2.54c1.1,0.36,1.9-0.56,2.46-1.29c2.31-3,4.6-5.98,7.27-8.72
		c2.83-2.9,4.72-2.67,7.07,0.57c5.47,7.53,6.21,7.37,10.4-1.11c0.94-1.9,1.77-3.94,3.09-5.57c1.68-2.08,4.06-2.26,6.16-0.55
		c2.1,1.71,1.21,3.4-0.47,4.94c-3.39,3.11-4.5,7.58-6.88,11.3c-3.65,5.71-5.75,6.12-11.02,1.9c-6.28-5.03-6.31-5.04-10.58,1.46
		c-2.02,3.08-3.89,6.45-8.5,5.18c-4.59-1.26-5.2-5.04-5.35-8.96C380.62,45.39,380.68,43.75,380.68,42.11z"/>
	<path d="M1219.23,29.98c0,1.48,0.16,2.97-0.03,4.42c-0.42,3.2,1.3,4.42,4.15,4.84c1.47,0.22,2.93,0.59,4.39,0.89
		c1.42,0.29,3.45,0.17,3.39,2.11c-0.07,2.3-2.21,2.52-4.06,2.71c-6.88,0.68-7.58,1.57-5.74,8.52c0.94,3.55,1.07,7.1,1.02,10.71
		c-0.03,1.83,0.13,3.9-2.59,3.81c-2.43-0.08-3.59-1.6-3.44-3.92c0.33-5.14-1.22-10.07-1.61-15.11c-0.28-3.52-1.14-5.99-4.99-6.67
		c-1.13-0.2-2.41-0.57-2.49-1.99c-0.09-1.54,1.05-2.62,2.37-2.74c3.72-0.36,3.36-2.94,3.41-5.41c0.11-5.36-0.55-10.85,3.85-15.24
		c4.11-4.1,10.78-4.03,14.49,0.37c0.79,0.93,1.5,1.92,0.74,3.08c-0.57,0.86-1.51,0.97-2.63,0.77
		C1219.19,19.36,1219.15,19.42,1219.23,29.98z"/>
	<path d="M1138.42,37.69c0-5.24,0-10.47,0-15.71c0-0.65-0.13-1.39,0.12-1.95c0.74-1.65,0.65-4.46,3.39-3.99
		c2.16,0.37,2.14,2.67,2.08,4.48c-0.09,2.77-0.5,5.55-0.4,8.32c0.12,3.45,0.82,5.81,5.33,3.2c5.68-3.28,11.21-0.15,11.59,6.26
		c0.23,3.92,0.09,7.86,0.03,11.78c-0.03,2.11-1.21,3.52-3.36,3.45c-2.04-0.07-2.64-1.73-2.65-3.51c-0.02-3.44,0.08-6.87,0.05-10.31
		c-0.02-3.4-1.74-3.85-4.53-2.47c-3.68,1.82-6.13,4.3-5.77,8.79c0.22,2.76,0.09,5.57-0.09,8.34c-0.14,2.1-1.01,3.98-3.53,3.95
		c-2.62-0.03-2.47-2.14-2.55-3.94c-0.03-0.65-0.07-1.31-0.07-1.96c-0.01-4.91,0-9.82,0-14.74
		C1138.19,37.69,1138.31,37.69,1138.42,37.69z"/>
	<path d="M1366.23,37.56c0-5.24-0.05-10.47,0.04-15.71c0.02-1.26,0.5-2.52,0.81-3.78c0.3-1.21,1.01-2.21,2.33-2.14
		c1.62,0.08,2.27,1.46,2.28,2.77c0.02,3.1-0.4,6.2-0.32,9.29c0.13,5.42,1,5.89,5.86,3.63c5.15-2.4,10.51,0.31,11.01,5.83
		c0.37,4.06,0.16,8.18,0.17,12.27c0.01,2.31-1.11,4-3.52,3.8c-2.26-0.19-2.55-2.21-2.55-4.12c0.01-3.44,0.09-6.87,0-10.3
		c-0.06-2.42-1.34-3.18-3.65-2.17c-3.87,1.69-6.83,3.93-6.57,8.74c0.17,3.1,0.09,6.23-0.19,9.32c-0.17,1.89-1.27,3.46-3.57,3.33
		c-2.31-0.13-2.39-1.9-2.4-3.58c-0.02-5.73-0.01-11.46-0.01-17.19C1366.05,37.56,1366.14,37.56,1366.23,37.56z"/>
	<path d="M457,49.17c0,1.68,0.01,2.33,0,2.99c-0.03,1.65,0.09,3.59-2.14,3.78c-2.21,0.19-3.29-1.45-3.52-3.39
		c-0.43-3.72,0.04-7.52-1.29-11.16c-0.68-1.85-0.9-4.2-3.29-4.41c-2.24-0.19-2.58,2.22-3.48,3.67c-2.47,3.98-2.95,8.63-4.3,12.98
		c-0.62,1.99-1.27,4.67-3.82,4.45c-2.3-0.2-3.09-2.51-3.34-4.83c-0.43-3.89-1.17-7.75-1.64-11.64c-0.15-1.26-0.2-2.78,1.44-3.29
		c1.22-0.38,2.21,0.13,2.92,1.26c1.64,2.61,2.48,0.86,3.34-0.65c0.08-0.14,0.13-0.3,0.2-0.45c2.03-4.05,4.32-8.46,9.62-7.78
		c5.18,0.67,6.49,5.65,7.89,9.8C456.62,43.6,457.21,46.87,457,49.17z"/>
	<path d="M539.27,41c2.28-2.43,2.84-5.91,5.45-8.13c3.99-3.39,7.55-3.25,10.55,0.96c4.22,5.92,4.88,12.74,4.57,19.71
		c-0.06,1.44-0.8,2.6-2.47,2.42c-1.92-0.2-2.9-1.58-3.12-3.33c-0.45-3.72,0.07-7.52-1.28-11.17c-0.68-1.84-0.86-4.19-3.22-4.48
		c-2.3-0.28-2.62,2.14-3.53,3.58c-2.42,3.82-2.94,8.29-4.2,12.5c-0.66,2.19-1.22,5.11-3.88,5c-2.56-0.11-3.2-2.77-3.48-5.22
		c-0.31-2.75-1.18-5.45-1.47-8.2c-0.21-2.02-1.13-4.56,0.85-6.01C536.67,36.72,537.24,40.66,539.27,41z"/>
	<path d="M340.08,19.83c1.72,11.96,0.81,23.84-0.96,35.7c-0.36,2.38-0.06,5.84-3.55,5.22c-3.26-0.58-3.02-3.96-2.94-6.8
		c0.28-9.28,3.05-18.32,2.5-27.7c-0.24-4.1-0.48-8.14-1.36-12.16c-0.31-1.42-0.57-2.95-0.37-4.36c0.29-2.05,0.55-4.7,3.33-4.73
		c2.4-0.02,2.05,2.51,2.62,4.13C340.59,12.63,340.22,16.25,340.08,19.83z"/>
	<path d="M1114.7,49.8c2.61,0.19,4.25-1.42,5.95-3.03c1.51-1.43,3.21-3.63,5.41-1.58c2.33,2.17,0.31,4.19-1.19,5.9
		c-6.72,7.64-20.38,7.28-25.07-0.61c-2.98-5.01-1.93-9.75,3.78-16.35c2.51-2.9,5.36-5.4,9.49-5.7c1.34-0.1,2.81-0.03,3.26,1.55
		c0.39,1.34-0.73,2.08-1.69,2.71c-3.23,2.08-6.1,4.5-8.07,7.83c-3.1,5.24-2.34,6.99,3.73,8.48
		C1111.75,49.35,1113.23,49.53,1114.7,49.8z"/>
	<path d="M307.74,56.63c-1.9-0.46-4.56-0.85-7.02-1.75c-5.81-2.12-8.35-8.53-5.7-14.06c2.38-4.97,5.46-9.38,10.78-11.7
		c1.97-0.86,4.57-1.75,5.88,0.4c1.51,2.48-1.62,3-2.91,4.22c-1.07,1.01-2.51,1.72-3.37,2.87c-2.32,3.11-6.74,5.94-3.9,10.44
		c2.19,3.47,11.18,2.94,14.76-0.24c1.56-1.38,3.2-3.65,5.43-1.69c2.39,2.1,0.43,4.16-1.07,5.9
		C317.52,54.64,312.44,56.95,307.74,56.63z"/>
	<path d="M1396.72,40.53c0.16-4.23,2.05-8.07,6.22-10.53c2.66-1.57,5.49-1.63,7.7,0.79c2.32,2.56,1.46,5.19-0.64,7.45
		c-1.1,1.18-2.39,2.41-3.85,3c-4.61,1.87-3.44,4.31-1.03,7.04c1.66,1.87,3.56,3.38,6.03,4.13c2.19,0.67,3.7,0.51,3.26-2.34
		c-0.26-1.7-0.4-3.74,1.95-3.57c1.93,0.14,3.62,1.4,3.87,3.79c0.57,5.36-5.26,9.44-10.99,7.62
		C1401.38,55.43,1396.8,49.25,1396.72,40.53z"/>
	<path d="M1000.06,40.56c0.15-4.23,2.03-8.07,6.2-10.54c2.66-1.58,5.49-1.65,7.7,0.76c2.33,2.54,1.4,5.1-0.57,7.48
		c-1.29,1.56-2.89,2.71-4.73,3.48c-3.11,1.3-2.79,3.14-1.12,5.37c1.81,2.42,3.96,4.37,6.94,5.3c2.17,0.68,3.72,0.56,3.29-2.3
		c-0.26-1.71-0.37-3.77,1.93-3.59c2.16,0.17,3.87,1.61,3.92,4.26c0.09,5.27-5.42,8.91-10.99,7.16
		C1004.76,55.46,1000.15,49.27,1000.06,40.56z"/>
	<path d="M766.87,28.94c4.37-0.05,6.89,4.03,4.8,7.83c-1.05,1.91-2.71,3.26-4.58,4.38c-4.39,2.64-4.54,3.8-1.01,7.58
		c1.47,1.57,3.16,2.86,5.26,3.57c2.24,0.75,4.1,1,3.61-2.32c-0.25-1.73-0.26-3.74,2.07-3.46c1.9,0.22,3.6,1.47,3.78,3.9
		c0.29,3.96-3.41,8.24-7.67,7.94c-6.16-0.44-11.06-3.73-14.05-8.87c-3.36-5.78-2.24-13.21,1.77-17.44
		C762.49,30.31,764.45,29.19,766.87,28.94z"/>
	<path d="M731.06,36.02c-0.23,1.51-0.38,3.31-0.78,5.05c-0.93,4.08,1.27,8.55,5.18,9.78c4.54,1.42,5.56-2.07,6.1-5.08
		c0.49-2.72,0.78-5.48,1.51-8.17c0.55-2.04,1.68-4.04,3.88-3.83c2.73,0.26,1.58,2.87,1.49,4.37c-0.2,3.58-0.65,7.17-1.37,10.69
		c-1.3,6.4-3.16,7.79-9.84,7.96c-6.33,0.16-11.17-2.76-12.35-7.8c-1.3-5.59-0.23-11.07,1.53-16.41c0.45-1.36,1.54-3.23,3.1-2.57
		C732.09,31.08,730.35,33.81,731.06,36.02z"/>
	<path d="M121.57,35.92c-0.22,1.54-0.35,3.34-0.75,5.08c-0.94,4.16,1.17,8.43,5.09,9.83c3.04,1.09,4.85-0.35,5.56-3.15
		c0.84-3.3,1.37-6.68,2.11-10.01c0.51-2.26,1.93-4.42,4.27-3.9c2.14,0.48,1.21,3.13,1.12,4.78c-0.18,3.26-0.57,6.53-1.21,9.73
		c-1.45,7.18-3.89,8.9-11.43,8.47c-6.78-0.39-10.57-3.82-11.28-10.13c-0.43-3.81,0.09-7.47,1.11-11.15
		c0.65-2.37,0.85-5.74,3.82-5.37C122.63,30.43,120.85,33.75,121.57,35.92z"/>
	<path d="M819.95,28.59c-0.13-0.88-0.27-2.02-0.47-3.14c-0.33-1.85-0.52-4.07,1.59-4.6c2.75-0.69,2.82,2.07,3.53,3.77
		c0.19,0.44,0.15,0.97,0.27,1.44c0.59,2.37,1.31,4.37,4.63,3.52c2.1-0.54,4.47,0.47,4.88,2.39c0.55,2.61-2.19,2.07-3.81,2.51
		c-4.35,1.19-4.47,4.98-4.63,8.3c-0.15,3.05,0.63,6.14,0.9,9.23c0.18,2.09-0.24,4.36-2.62,4.61c-2.63,0.27-3.65-1.91-3.8-4.21
		c-0.24-3.59-0.37-7.18-0.41-10.77c-0.03-2.61-0.54-4.3-3.7-2.85c-1.66,0.76-3.53,0.94-4.25-0.97c-0.82-2.18,1.11-3.19,2.78-3.94
		C817.19,32.79,820.13,32.39,819.95,28.59z"/>
	<path d="M157.31,20.61c2.17,0.64,2.54,2.51,2.87,4.21c0.61,3.11,1.24,5.74,5.61,4.73c1.78-0.41,3.99,0.74,4.23,2.59
		c0.29,2.21-2.08,1.9-3.61,2.3c-3.72,0.97-5.63,5.28-4.94,10.98c0.29,2.43,0.73,4.84,0.92,7.27c0.15,1.97-0.63,3.81-2.81,3.91
		c-2.05,0.09-3.29-1.45-3.44-3.48c-0.27-3.74-0.49-7.5-0.56-11.25c-0.05-2.74-0.39-4.7-3.92-3.03c-1.66,0.78-3.51,0.73-4.11-1.25
		c-0.58-1.9,1-3.17,2.62-3.58c4.94-1.26,6.18-4.2,4.88-8.81C154.5,23.27,154.65,21.25,157.31,20.61z"/>
	<path d="M1346.52,56.73c-2.38-0.42-3.38-2.01-3.51-4.14c-0.23-3.59-0.42-7.18-0.43-10.77c-0.01-2.89-0.6-4.56-3.99-2.93
		c-1.44,0.69-3.11,0.73-3.88-0.92c-0.91-1.94,0.48-3.28,2.1-3.72c5.27-1.44,6.67-4.61,5.17-9.59c-0.48-1.6-0.13-3.53,1.94-3.88
		c2.25-0.39,2.69,1.74,3.03,3.19c0.83,3.44,1.16,6.91,6.42,5.64c1.39-0.34,3.51,0.83,3.68,2.62c0.18,1.93-1.81,1.84-3.23,2.19
		c-4.14,1.04-6.08,5.15-5.36,11.1c0.31,2.59,0.72,5.17,0.88,7.76C1349.45,55.13,1348.37,56.31,1346.52,56.73z"/>
	<path d="M890.96,56.73c-2.34-0.37-3.41-1.9-3.55-4.06c-0.23-3.58-0.4-7.18-0.45-10.77c-0.04-2.72-0.36-4.72-3.91-3.05
		c-1.66,0.78-3.51,0.74-4.12-1.24c-0.59-1.9,0.99-3.17,2.61-3.59c4.93-1.26,6.22-4.19,4.89-8.81c-0.51-1.76-0.49-3.96,1.79-4.42
		c2.49-0.5,2.91,1.96,3.21,3.54c0.67,3.55,1.52,6.24,6.23,5.23c1.48-0.31,3.52,0.84,3.77,2.56c0.29,1.95-1.72,1.9-3.14,2.26
		c-4.2,1.07-6.15,5.08-5.45,11.02c0.31,2.59,0.72,5.17,0.89,7.76C893.85,55.03,892.82,56.25,890.96,56.73z"/>
	<path d="M991.44,48.35c0.03,1.84-0.79,3.28-1.83,4.55c-2.67,3.25-6.44,5.09-10.06,7c-1.68,0.88-3.82,0.51-4.77-1.39
		c-1-2.01,0.79-2.85,2.27-3.64c0.58-0.31,1.19-0.57,1.77-0.89c7.6-4.24,7.81-5.41,1.47-11.02c-3.02-2.67-3.74-5.78-2.38-9.27
		c1.49-3.81,4.17-6.7,8.32-7.81c1.12-0.3,2.44,0.21,3.06,1.23c0.88,1.45-0.67,1.91-1.48,2.59c-0.76,0.63-1.62,1.14-2.36,1.8
		c-3.64,3.28-3.59,6.05,0.56,8.63C989.26,42.15,990.83,44.92,991.44,48.35z"/>
	<path d="M803.62,48.5c-0.1,2.11-1.02,3.98-2.54,5.19c-2.83,2.23-5.84,4.28-8.98,6.07c-1.85,1.05-4.15,0.79-5.19-1.3
		c-0.98-1.97,0.9-2.82,2.37-3.61c0.87-0.47,1.77-0.9,2.61-1.41c6.8-4.09,6.95-5.06,0.88-10.2c-3.03-2.56-4.11-5.55-2.84-9.15
		c1.37-3.86,3.96-6.78,8.05-8.1c1.42-0.46,2.81,0.06,3.49,1.19c0.84,1.39-0.75,1.88-1.57,2.56c-0.76,0.63-1.63,1.14-2.35,1.8
		c-3.6,3.27-3.51,6.01,0.68,8.62C801.48,42.2,803.02,44.99,803.62,48.5z"/>
	<path d="M1284.15,37.63c-4.31-1.22-5.61,1.04-5.92,4.78c-0.26,3.09-0.87,6.15-1.31,9.23c-0.24,1.66-0.46,3.56-2.54,3.68
		c-2.64,0.15-2.56-2.31-2.72-3.88c-0.23-2.25,0.08-4.56,0.32-6.83c0.33-3.08,0.73-6.03-0.55-9.14c-1.29-3.15-0.07-5.22,3.83-4.4
		c2.18,0.46,4.29,0.27,6.42-0.14c0.65-0.13,1.32-0.22,1.98-0.22c2.96-0.04,5.45,0.81,5.6,4.17
		C1289.43,38.95,1286.02,36.93,1284.15,37.63z"/>
	<path d="M1085.47,37.72c-4.38-1.27-5.67,0.87-6.04,4.38c-0.35,3.41-0.93,6.81-1.44,10.2c-0.23,1.54-0.78,3.01-2.62,3.08
		c-2.08,0.07-2.08-1.83-2.43-3.14c-0.65-2.42-0.23-4.88,0.13-7.31c0.49-3.24,0.84-6.35-0.53-9.62c-1.19-2.86,0.04-4.94,3.57-4.29
		c2.36,0.44,4.61,0.34,6.9-0.12c0.49-0.1,0.99-0.15,1.48-0.17c3.15-0.12,5.88,0.68,5.92,4.33
		C1090.47,39.13,1086.89,36.64,1085.47,37.72z"/>
	<path d="M71.76,37.61c-3.8-2.73-7.95-3.04-12.15-0.76c-2.43,1.32-4.45,3.19-6.72,5.54c0.51-10.7-0.13-20.71-1.85-30.64
		c-0.31-1.82-1.09-3.82-3.34-3.6c-2.3,0.23-1.9,2.45-1.69,3.92c1.71,12.07,1.21,24.13,0.47,36.24c-0.41,6.69-0.1,6.7,6.57,6.88
		c0.44,0.01,0.88,0.37,1.32,0.56c6.29,2.79,12.29,1.14,18.2-1.26c1.8-0.73,2.82-2.26,3.42-4.02C77.32,46.53,75.37,40.2,71.76,37.61z
		 M66.31,50.52c-1.78,0.35-3.59,0.53-4.97,0.73c-1.86-0.21-3.66,0.57-4.56-0.9c-0.93-1.52,0.71-2.65,1.39-3.86
		c1.13-2.02,2.65-3.74,4.89-4.68c3.55-1.49,5.66-0.09,6.88,3.25C71.2,48.52,69.34,49.93,66.31,50.52z"/>
	<path d="M715.14,64.26c-1.14-1.22-2.54-0.72-3.62,0.02c-1.47,1-2.75,2.28-4.99,4.2c-0.06-8.5,0.41-16.11,2.07-23.56
		c1.35-6.06,0.54-8.43-5.49-12.43c-4.1-2.72-8.62-2.38-12.81,0.97c-4.53,3.62-5.88,8.72-3.73,14.05c1.71,4.23,6.86,8.14,10.7,7.13
		c5.54-1.45,4.78,1.89,4.1,4.77c-1.09,4.65-1.97,9.3-1.8,14.06c0.15,4.16,2.93,5.73,6.29,3.22c3.39-2.55,6.23-5.83,9.21-8.88
		C716.06,66.79,716.2,65.4,715.14,64.26z M695.78,48.78c-3.18-0.37-4.32-2.6-4.17-5.58c0.1-3.85,3.04-7.39,6.06-6.94
		c2.61,0.39,4.59,1.78,4.56,4.78C702.18,45.38,699.15,49.17,695.78,48.78z"/>
	<path d="M1062.48,51.63c-1.79-3.74-2.39-7.78-3.44-11.72c-0.89-3.35-2.44-5.96-6.66-3.85c-1.58,0.79-2.48-0.23-3.42-1.15
		c-2.86-2.8-6.33-3.2-9.61-1.41c-4.1,2.25-7.54,5.35-8.22,9.8c-0.13,6.73,5.9,10.57,11.81,8.18c3.19-1.29,5.4-3.72,7.75-6.03
		c2.34-2.3,3.79-1.52,4.39,1.35c0.5,2.38,0.24,4.9,1.57,7.12c0.97,1.62,1.93,3.27,4.21,2.24
		C1062.86,55.25,1063.36,53.47,1062.48,51.63z M1038.56,47.14c-0.94,0.04-1.88-1.71-1.71-3.14c0.37-3.27,2.38-5.79,5.8-6.31
		c1.97-0.3,3.96,0.76,4.47,2.99C1047.57,42.65,1042.65,46.82,1038.56,47.14z"/>
	<path d="M638.03,52.36c-2.01-4.53-2.67-9.41-4.17-14.06c-0.61-1.9-2.11-3.66-3.96-2.82c-3.27,1.47-5.18-0.04-7.35-1.88
		c-1-0.84-2.36-1.19-3.51-1.05c-5.12,0.08-8.04,3.22-10.72,6.62c-2.74,3.47-2.37,7,0.36,10.29c2.7,3.27,6.09,3.51,9.85,1.93
		c2.51-1.06,4.37-2.9,6.31-4.69c1.15-1.05,2.04-3.09,3.95-2.39c2.03,0.74,1.84,2.93,1.9,4.67c0.07,2.04,0.75,3.82,1.7,5.56
		c0.78,1.44,1.87,2.36,3.6,1.73C637.81,55.6,638.76,54,638.03,52.36z M614.88,47.06c-2.13-0.1-2.99-1.93-2.69-3.35
		c0.66-3.14,2.55-5.8,6.12-6.04c1.94-0.13,3.81,0.96,4.25,3.28C622.57,42.93,617.3,47.18,614.88,47.06z"/>
	<path d="M246.21,51.8c-1.96-4.04-2.48-8.44-3.73-12.65c-0.88-2.94-2.53-4.79-5.79-3.35c-1.72,0.76-2.76,0.42-3.92-0.76
		c-2.95-3.01-6.59-3.38-10.01-1.39c-4.02,2.34-7.51,5.43-7.96,9.93c0.15,6.58,5.97,10.23,11.68,7.98c3.19-1.26,5.45-3.65,7.77-5.99
		c2.61-2.62,4.07-1.48,4.57,1.55c0.4,2.41,0.34,4.88,1.66,7.08c0.9,1.51,1.9,2.85,3.9,2.03C246.42,55.4,247.11,53.65,246.21,51.8z
		 M222.75,47.07c-1.57-0.25-2.54-1.9-2.23-3.37c0.68-3.14,2.56-5.8,6.13-6.03c1.94-0.12,3.95,0.94,4.2,3.29
		C231.06,42.91,225.62,47.14,222.75,47.07z"/>
	<path d="M36.33,51.57c-1.69-3.6-2.33-7.45-3.29-11.25c-0.85-3.36-2.21-6.54-6.85-4.23c-1.58,0.78-2.47-0.31-3.41-1.22
		c-2.88-2.78-6.36-3.15-9.62-1.33C9.09,35.8,5.63,38.89,5,43.35c-0.07,6.52,5.74,10.46,11.43,8.32c3.2-1.2,5.53-3.55,7.82-5.92
		c2.78-2.87,4.28-1.75,4.79,1.59c0.35,2.25,0.31,4.56,1.5,6.63c0.95,1.64,1.97,3.24,4.24,2.16C36.78,55.18,37.2,53.41,36.33,51.57z
		 M13.24,47.07c-1.99-0.26-2.6-1.87-2.58-3.54c0.03-2.59,3.87-6.07,6.39-5.94c1.82,0.54,3.86,1.06,3.94,3.51
		C21.06,43.1,15.48,47.37,13.24,47.07z"/>
	<path d="M96.38,28.43c-2.42-1.07-4.26-0.9-6.35,0.7c-7.49,5.73-6.11,20.89,2.35,24.89c1.08,0.51,2.19,0.7,3.49,0.31
		c2.34,0.26,4.29-0.45,5.96-2.44C108.51,43.87,105.89,32.63,96.38,28.43z M95.38,47.76c-3.6-0.06-3.85-4.72-4.33-7.81
		c-0.41-2.64,0.41-6.1,3.34-6.08c2.86,0.02,5.12,2.67,5.17,6.28C98.65,42.95,99.56,47.83,95.38,47.76z"/>
	<path d="M364.98,30.01c-4.85-3.49-9.29-2.61-12.32,2.5c-1.27,2.14-1.82,4.52-2,7.54c0.58,4.21,1.89,8.74,5.37,12.25
		c3.6,3.63,8.94,3.08,12-0.98C373.32,44.29,372,35.07,364.98,30.01z M364.96,41.58c-0.61,1.76,0.17,6.27-3.88,6.23
		c-3.27-0.03-3.39-4.26-4.15-6.96c-0.71-2.51,0.09-4.82,1.99-6.69c0.89-0.87,1.78-0.64,2.64,0.02
		C363.69,35.79,365.87,37.39,364.96,41.58z"/>
	<path d="M514.87,28.37c-2.51-1.08-4.3-0.7-6.32,0.88c-7.27,5.68-6.01,20.24,2.19,24.64c1.22,0.65,2.48,0.86,3.76,0.48
		c3.84-0.19,3.87-0.21,5.74-2.27C527.32,44.25,524.61,32.58,514.87,28.37z M514.25,47.74c-3.93,0.04-4.23-4.77-4.57-8.04
		c-0.27-2.59,0.42-6.04,3.6-5.85c2.56,0.16,4.86,2.64,4.92,6.07C517.45,42.81,518.16,47.7,514.25,47.74z"/>
	<path d="M919.97,28.52c-2.83-1.33-4.92-0.86-7.18,1.05c-6.86,5.79-5.37,20.11,2.64,24.31c0.84,0.44,1.86,0.55,2.15,0.64
		c3.12-0.21,5.45-0.17,7.37-2.38C931.65,44.42,929.22,32.86,919.97,28.52z M918.85,47.76c-3.81,0.12-3.89-4.61-4.47-7.63
		c-0.5-2.63,0.27-6.11,3.14-6.25c2.96-0.15,5.08,2.58,5.37,5.95C922.08,42.84,922.86,47.64,918.85,47.76z"/>
	<path d="M1255.19,29.98c-4.85-3.46-9.31-2.55-12.31,2.58c-1.26,2.15-1.8,4.53-1.94,7c-0.04,3.6,2.83,10.5,5.35,12.82
		c3.61,3.34,8.67,3.03,11.71-0.71C1263.62,44.74,1262.37,35.11,1255.19,29.98z M1255.21,41.58c-0.61,1.76,0.17,6.27-3.88,6.23
		c-3.27-0.03-3.39-4.26-4.15-6.96c-0.71-2.51,0.09-4.82,1.99-6.69c0.89-0.87,1.78-0.64,2.64,0.02
		C1253.94,35.79,1256.12,37.39,1255.21,41.58z"/>
</g>
</svg>
