<?xml version="1.0" encoding="utf-8"?>
<!-- Generator: Adobe Illustrator 27.9.1, SVG Export Plug-In . SVG Version: 6.00 Build 0)  -->
<svg version="1.1" id="Layer_1" xmlns="http://www.w3.org/2000/svg" xmlns:xlink="http://www.w3.org/1999/xlink" x="0px" y="0px"
	 viewBox="0 0 1213.23 80.46" style="enable-background:new 0 0 1213.23 80.46;" xml:space="preserve">
<g>
	<path d="M968.27,42.09c0.13-1.8,0.34-3.59,0.36-5.39c0.02-1.67,0.5-3.09,2.34-3.13c2.09-0.04,2.72,1.5,2.72,3.35
		c0,2.79,0.01,5.57,0.04,8.36c0.01,0.94-0.33,2.14,0.88,2.55c1.09,0.37,1.9-0.55,2.47-1.28c2.31-2.99,4.6-5.98,7.26-8.71
		c2.82-2.89,4.72-2.69,7.07,0.55c5.48,7.52,6.22,7.37,10.4-1.09c0.94-1.9,1.77-3.94,3.08-5.57c1.68-2.08,4.06-2.26,6.16-0.56
		c2.1,1.7,1.22,3.39-0.46,4.94c-3.39,3.11-4.51,7.57-6.88,11.29c-3.65,5.71-5.75,6.12-11.02,1.91c-6.29-5.03-6.32-5.04-10.58,1.45
		c-2.02,3.08-3.88,6.45-8.49,5.19c-4.59-1.26-5.21-5.02-5.36-8.95C968.21,45.37,968.27,43.73,968.27,42.09z"/>
	<path d="M1180.5,13.65c3.28,0.32,5.64,1.08,7.67,2.58c1.3,0.96,3.03,2.1,2.01,3.98c-1.1,2.04-3.03,0.98-4.34,0.19
		c-3.28-1.99-5.94-1.9-7.79,1.71c-0.5,0.97-0.65,2.18-0.73,3.29c-0.12,1.63-0.04,3.28-0.02,4.91c0.12,9.64-0.88,7.49,7.89,9.69
		c1.62,0.41,4.37-0.03,3.99,2.56c-0.34,2.3-2.82,2.32-4.87,2.39c-5.45,0.2-6.61,1.51-5.29,6.93c0.98,4.02,1.62,8,1.43,12.13
		c-0.08,1.79,0.24,3.94-2.45,3.96c-2.37,0.02-3.73-1.4-3.58-3.77c0.33-5.3-1.31-10.39-1.65-15.59c-0.23-3.46-1.31-5.55-4.82-6.28
		c-1.28-0.27-2.77-0.61-2.63-2.37c0.1-1.27,1.11-2.27,2.22-2.37c3.62-0.3,3.51-2.73,3.57-5.29c0.09-3.58-0.53-7.29,0.89-10.69
		C1173.69,17.53,1176.36,14.31,1180.5,13.65z"/>
	<path d="M280.19,30.11c0.04,7.95,0.04,7.94,8.19,9.93c1.51,0.37,3.87,0.05,3.71,2.32c-0.15,2.2-2.34,2.41-4.21,2.56
		c-6.64,0.55-7.4,1.51-5.66,8.18c0.97,3.71,1.17,7.41,1.1,11.19c-0.03,1.89-0.04,3.83-2.75,3.65c-2.15-0.15-3.39-1.44-3.27-3.57
		c0.33-5.47-1.41-10.72-1.68-16.08c-0.18-3.7-1.83-5.29-5.1-6.06c-1.11-0.27-2.35-0.62-2.35-2.1c0-1.33,1.01-2.41,2.05-2.49
		c4.34-0.35,3.7-3.42,3.74-6.15c0.06-5.23-0.32-10.49,3.96-14.69c4.09-4.01,10.97-3.81,14.49,0.6c0.78,0.98,1.38,2.02,0.56,3.09
		c-0.61,0.79-1.58,0.83-2.7,0.6C280.42,19.04,280.13,19.32,280.19,30.11z"/>
	<path d="M110.36,30.1c0.04,7.96,0.04,7.95,8.18,9.94c1.51,0.37,3.87,0.05,3.72,2.32c-0.14,2.21-2.33,2.41-4.2,2.57
		c-6.65,0.56-7.41,1.5-5.67,8.17c0.97,3.71,1.17,7.41,1.1,11.19c-0.04,1.89-0.03,3.84-2.74,3.66c-2.15-0.14-3.4-1.43-3.27-3.56
		c0.32-5.47-1.33-10.71-1.7-16.08c-0.23-3.3-1.37-5.17-4.59-5.93c-1.24-0.29-2.82-0.51-2.82-2.23c0.01-1.5,1.14-2.52,2.5-2.65
		c3.8-0.38,3.2-3.12,3.25-5.5c0.13-5.37-0.47-10.84,3.97-15.19c4.1-4.01,10.96-3.83,14.49,0.58c0.78,0.98,1.38,2.01,0.57,3.09
		c-0.6,0.8-1.58,0.84-2.7,0.61C110.58,19.06,110.3,19.33,110.36,30.1z"/>
	<path d="M370.46,43.62c0,1.96,0.01,3.93,0,5.89c-0.01,2.24-0.88,4.04-3.35,3.98c-2.35-0.06-2.72-2.02-2.72-3.93
		c0.01-3.27,0.09-6.54,0.08-9.81c-0.02-3.3-1.61-3.97-4.48-2.55c-3.67,1.82-6.17,4.25-5.81,8.75c0.22,2.76,0.09,5.56-0.09,8.34
		c-0.13,2.09-0.96,3.99-3.49,4c-2.63,0.01-2.6-2.07-2.59-3.89c0.07-11.12,0.09-22.24,0.34-33.36c0.05-2.12,0.3-5.34,3.38-4.95
		c2.58,0.32,2.19,3.22,2.05,5.35c-0.12,1.79-0.4,3.58-0.4,5.37c-0.02,6.43,0.64,6.85,6.64,4.47c4.47-1.77,9.48,0.81,10.2,5.48
		c0.34,2.24,0.06,4.57,0.06,6.85C370.33,43.62,370.4,43.62,370.46,43.62z"/>
	<path d="M755.86,37.72c0-5.23-0.03-10.46,0.03-15.69c0.01-1.12,0.25-2.26,0.57-3.33c0.42-1.4,0.94-3.09,2.87-2.73
		c1.75,0.33,2.12,2.03,2.11,3.51c-0.01,3.42-0.43,6.85-0.29,10.27c0.12,3.02,1.25,4.43,4.74,2.56c6.66-3.56,11.88-0.49,12.15,6.9
		c0.13,3.43,0.02,6.87,0,10.31c-0.01,2.23-0.87,4.04-3.35,3.98c-2.35-0.05-2.73-2.01-2.72-3.92c0.01-3.27,0.09-6.54,0.08-9.81
		c-0.02-3.29-1.6-3.98-4.48-2.56c-3.67,1.82-6.16,4.25-5.83,8.74c0.22,2.92,0.09,5.89-0.15,8.82c-0.15,1.9-1.15,3.55-3.41,3.53
		c-2.64-0.03-2.58-2.07-2.59-3.89c-0.03-5.56-0.01-11.12-0.01-16.69C755.68,37.72,755.77,37.72,755.86,37.72z"/>
	<path d="M1044.57,49.88c0,0.66,0.01,1.31,0,1.97c-0.04,1.78,0.23,4.03-2.35,4.06c-2.43,0.02-3.36-1.98-3.4-4.09
		c-0.08-3.77-0.13-7.52-1.37-11.14c-0.53-1.54-0.93-3.37-2.85-3.7c-2.16-0.37-2.51,1.67-3.37,2.98c-2.69,4.08-3.27,8.85-4.6,13.38
		c-0.61,2.06-1.34,4.76-3.64,4.73c-2.6-0.04-3.35-2.59-3.63-5.07c-0.41-3.73-1.15-7.42-1.62-11.14c-0.16-1.26-0.28-2.81,1.19-3.47
		c1.39-0.62,2.49,0.06,3.3,1.34c1.46,2.31,2.35,0.77,3.07-0.58c1.15-2.16,2.07-4.44,3.97-6.16c4.05-3.65,7.79-3.41,10.86,1.05
		C1043.42,38.79,1044.44,44.24,1044.57,49.88z"/>
	<path d="M1154.45,19.81c1.72,11.95,0.82,23.83-0.96,35.67c-0.36,2.37-0.05,5.84-3.54,5.23c-3.27-0.57-3.03-3.95-2.95-6.79
		c0.28-9.27,3.05-18.3,2.5-27.67c-0.24-4.09-0.48-8.14-1.36-12.15c-0.31-1.42-0.57-2.94-0.37-4.35c0.28-2.05,0.55-4.7,3.32-4.74
		c2.4-0.04,2.06,2.5,2.63,4.11C1154.96,12.61,1154.59,16.23,1154.45,19.81z"/>
	<path d="M178.33,56.71c-3.09-0.56-6.4-0.84-9.4-2.38c-5.01-2.56-7.06-8.24-4.69-13.3c2.41-5.14,5.57-9.71,11.11-12.01
		c1.95-0.81,4.56-1.66,5.79,0.69c1.12,2.14-1.47,2.91-2.85,3.86c-3.49,2.39-6.19,5.39-7.87,9.24c-0.67,1.54-1.11,3.07,0.44,4.47
		c2.98,2.7,11.13,2.75,14.19,0.01c0.61-0.55,1.13-1.22,1.79-1.69c1.36-0.96,2.82-2.01,4.39-0.39c1.45,1.5,0.81,3.08-0.2,4.44
		C187.93,53.84,183.78,56.25,178.33,56.71z"/>
	<path d="M583.92,56.71c-3.09-0.57-6.41-0.85-9.4-2.38c-5.01-2.57-7.06-8.24-4.69-13.3c2.41-5.14,5.57-9.71,11.11-12
		c1.95-0.81,4.56-1.66,5.79,0.69c1.11,2.14-1.48,2.91-2.86,3.86c-3.49,2.39-6.19,5.39-7.87,9.24c-0.67,1.55-1.11,3.07,0.45,4.47
		c2.98,2.7,11.13,2.74,14.19,0.01c0.61-0.55,1.13-1.22,1.79-1.69c1.36-0.96,2.82-2.01,4.39-0.39c1.45,1.5,0.8,3.08-0.2,4.44
		C593.53,53.84,589.37,56.25,583.92,56.71z"/>
	<path d="M922.66,27.44c0.25-3.93-0.11-8.96-1.46-13.91c-0.21-0.78-0.35-1.62-0.3-2.42c0.16-2.43,0.08-5.61,3.04-6
		c3.4-0.45,3.05,3.2,3.2,5.05c1.14,13.99,2.39,28.01,0.04,42.02c-0.24,1.45-0.39,2.92-0.55,4.38c-0.22,2.02-0.47,4.21-3.1,4.28
		c-3.08,0.08-3.33-2.88-3.34-4.61c-0.04-4.69,0.03-9.54,1.19-14.05C922.55,37.62,922.59,33.16,922.66,27.44z"/>
	<path d="M898.13,49.78c2.66,0.21,4.32-1.67,6.13-3.37c1.42-1.34,3.07-3.13,5.08-1.29c2.15,1.96,0.53,3.9-0.83,5.56
		c-6.38,7.82-20.11,7.92-25.15,0.21c-3.29-5.04-2.46-9.55,3.17-16.37c2.55-3.09,5.48-5.73,9.79-6.1c1.34-0.12,2.81-0.03,3.29,1.52
		c0.41,1.33-0.7,2.09-1.66,2.72c-3.08,1.99-5.86,4.27-7.83,7.39c-3.54,5.6-2.72,7.51,3.92,9.02
		C895.33,49.36,896.65,49.52,898.13,49.78z"/>
	<path d="M1115.04,40.27c0.26-4.29,2.23-8.11,6.47-10.44c2.7-1.48,5.55-1.38,7.63,1.17c2.01,2.46,1.2,4.92-0.71,7.08
		c-0.86,0.97-1.86,1.87-2.94,2.6c-5.11,3.42-5.24,5.15-0.44,9.17c1.11,0.93,2.43,1.73,3.78,2.27c2.22,0.89,4.49,1.43,3.85-2.38
		c-0.27-1.57-0.14-3.37,1.81-3.28c1.98,0.1,3.68,1.28,4.03,3.62c0.81,5.31-5.01,9.56-10.78,7.85
		C1119.77,55.57,1114.9,48.97,1115.04,40.27z"/>
	<path d="M684.46,40.29c0.28-4.37,2.28-8.32,6.82-10.62c2.59-1.31,5.26-1.08,7.22,1.23c2.05,2.42,1.37,4.92-0.57,7.07
		c-1.08,1.2-2.31,2.55-3.76,3.1c-4.94,1.86-3.81,4.41-1.18,7.31c1.56,1.72,3.35,3.13,5.61,3.9c2.34,0.79,4.06,0.81,3.53-2.43
		c-0.28-1.76-0.17-3.73,2.16-3.38c1.88,0.28,3.56,1.54,3.71,3.98c0.34,5.22-5.11,9.09-10.71,7.5
		C689.32,55.69,684.4,49.11,684.46,40.29z"/>
	<path d="M523.17,28.93c4.37-0.09,6.96,3.97,4.88,7.77c-1.13,2.06-2.82,3.72-5.02,4.57c-4.16,1.62-3.69,3.9-1.28,6.66
		c1.75,2.01,3.73,3.69,6.37,4.48c2.24,0.67,3.66,0.39,3.21-2.41c-0.28-1.71-0.34-3.74,2.01-3.51c1.91,0.18,3.62,1.43,3.83,3.84
		c0.34,3.94-3.35,8.25-7.61,7.98c-6.18-0.39-11.06-3.71-14.08-8.81c-3.38-5.7-2.27-13.2,1.71-17.43
		C518.8,30.32,520.75,29.19,523.17,28.93z"/>
	<path d="M132.02,40.31c0.25-4.29,2.21-8.11,6.44-10.46c2.7-1.49,5.54-1.41,7.64,1.13c2.03,2.44,1.24,4.91-0.67,7.08
		c-0.86,0.97-1.85,1.88-2.93,2.6c-5.13,3.46-5.29,5.16-0.49,9.16c1.23,1.03,2.74,1.83,4.24,2.45c2.37,0.98,3.99,0.64,3.42-2.49
		c-0.28-1.56-0.17-3.41,1.77-3.3c2.2,0.12,3.95,1.45,4.1,4.07c0.31,5.24-5.18,9.04-10.78,7.4C136.79,55.61,131.9,49,132.02,40.31z"
		/>
	<path d="M328.05,53.68c-4.8,0.02-8.21-4.44-6.93-9.11c0.73-2.64,2.16-3.14,4.2-1.15c0.58,0.57,1.01,1.29,1.51,1.94
		c1.08,1.37,2.4,1.88,3.8,0.6c1.25-1.14,0.64-2.27-0.32-3.4c-1.74-2.04-3.78-3.62-6.24-4.75c-3.43-1.58-6.05-3.76-4.32-7.99
		c1.72-4.23,6.56-6.88,10.38-5.86c1.26,0.34,2.8,0.64,2.77,2.28c-0.02,1.25-1.18,1.73-2.3,2.26c-4.95,2.33-4.94,2.39-0.47,5.75
		c2.77,2.08,5.54,4.02,6.62,7.65C338.82,48.91,335.43,53.65,328.05,53.68z"/>
	<path d="M421.95,38.33c-0.52,0.2-1.27,0.56-2.06,0.77c-1.41,0.37-2.77,0.12-3.37-1.29c-0.62-1.45,0.41-2.47,1.49-3.28
		c0.52-0.39,1.14-0.74,1.76-0.88c4.43-0.98,5.33-3.79,4.33-7.73c-0.5-1.95-0.9-4.4,1.46-5.07c2.72-0.77,3.11,1.99,3.48,3.75
		c0.7,3.31,1.34,6,5.94,4.98c1.64-0.37,3.89,0.75,3.98,2.81c0.08,1.84-1.99,1.68-3.4,2.04c-3.9,0.98-5.82,5-5.19,10.76
		c0.27,2.43,0.73,4.84,0.95,7.27c0.18,1.95-0.5,3.92-2.6,4.13c-2.32,0.24-3.57-1.52-3.71-3.72c-0.26-3.91-0.35-7.82-0.56-11.73
		C424.39,39.72,424.64,37.95,421.95,38.33z"/>
	<path d="M208.61,28.2c-0.05-0.38-0.08-0.54-0.08-0.7c-0.05-2.4-2.03-5.98,1.64-6.58c3.08-0.5,2.86,3.25,3.5,5.46
		c0.65,2.21,1.42,4.07,4.41,3.14c1.35-0.42,2.58,0.16,3.73,0.91c0.87,0.57,1.81,1.21,1.42,2.27c-0.23,0.63-1.13,1.16-1.85,1.44
		c-5.74,2.3-7.53,5.26-6.75,11.38c0.29,2.26,0.72,4.51,0.92,6.78c0.17,1.92-0.35,3.91-2.5,4.22c-2.38,0.35-3.63-1.39-3.79-3.57
		c-0.3-3.9-0.47-7.82-0.55-11.73c-0.05-2.58-0.86-3.76-3.57-2.55c-1.64,0.74-3.46,1.09-4.3-0.81c-0.98-2.2,0.92-3.24,2.59-3.98
		C206.14,32.71,209.4,32.1,208.61,28.2z"/>
	<path d="M559.95,48.23c0.07,2.04-0.87,3.63-2.06,4.96c-2.67,2.98-6.24,4.82-9.74,6.64c-1.69,0.88-3.79,0.58-4.8-1.28
		c-1.09-2.02,0.68-2.86,2.15-3.66c0.72-0.39,1.48-0.73,2.2-1.14c7.26-4.15,7.45-5.28,1.18-10.75c-3.03-2.65-3.82-5.74-2.48-9.24
		c1.46-3.81,4.12-6.71,8.27-7.86c1.15-0.32,2.42,0.17,3.09,1.14c1.01,1.46-0.56,1.91-1.36,2.6c-0.62,0.54-1.35,0.95-1.98,1.48
		c-4.23,3.56-4.2,6.21,0.46,9.21C557.92,42.28,559.32,45.01,559.95,48.23z"/>
	<path d="M1093.26,60.18c-1.66-0.09-3.16-0.39-3.66-2.08c-0.49-1.61,0.75-2.34,1.93-3c0.86-0.48,1.78-0.87,2.64-1.37
		c7.25-4.15,7.43-5.26,1.15-10.76c-3.03-2.65-3.81-5.75-2.46-9.25c1.47-3.81,4.13-6.7,8.28-7.85c1.14-0.32,2.42,0.18,3.08,1.16
		c0.98,1.46-0.59,1.92-1.39,2.6c-1,0.85-2.17,1.54-3.08,2.47c-2.73,2.81-2.59,5.37,0.68,7.79c8.24,6.09,8.01,11.39-0.75,16.93
		C1097.63,58.13,1095.79,59.93,1093.26,60.18z"/>
	<path d="M91.42,27.27c-0.03,2.13-1.74,2.45-3.08,2.82c-6.04,1.67-9.29,5.34-9.2,11.68c0.02,1.29-0.23,2.62-0.61,3.86
		c-0.42,1.35-1.59,2.19-2.98,2.26c-1.79,0.09-1.92-1.31-2.11-2.69c-0.51-3.57-1.45-7.04-2.6-10.47c-0.65-1.93-0.59-4.58,2.44-3.72
		c3.03,0.86,4.31-0.74,5.89-2.39c2.26-2.37,4.99-3.74,8.29-4.06C89.65,24.35,90.86,25.41,91.42,27.27z"/>
	<path d="M818.19,30.76c3.72,1.28,4.81-0.71,6.13-2.06c2.42-2.47,5.26-3.94,8.76-4.16c1.77-0.11,2.92,0.79,3.44,2.28
		c0.68,1.96-0.87,2.68-2.34,3.04c-7.06,1.73-10.1,6.27-9.91,13.25c0.06,2.33-0.78,4.58-3.33,4.72c-3.14,0.17-1.93-2.82-2.46-4.46
		c-0.91-2.8-1.64-5.66-2.38-8.5C815.37,32.1,815.97,30.39,818.19,30.76z"/>
	<path d="M311.84,45.55c0.15,3.05-1.06,4.01-2.68,4.74c-1.63,0.74-2.81,0.18-3.93-1c-3-3.17-4.5-12.82-2.54-16.8
		c0.61-1.23,1.5-2.24,3.02-2.15c1.85,0.11,3.18,1.24,3.57,2.92C310.32,37.69,311.15,42.16,311.84,45.55z"/>
	<path d="M1204.03,46.2c2.48,0.2,4.19,1.45,4.2,3.88c0.01,2.84-2.01,4.49-4.69,4.73c-2.68,0.24-4.46-1.42-4.43-4.07
		C1199.16,47.82,1201.47,46.76,1204.03,46.2z"/>
	<path d="M311.16,20.72c-0.65,1.69-1.71,2.97-3.59,2.91c-2.3-0.06-3.8-1.54-3.95-3.67c-0.12-1.65,1.18-2.57,3.02-2.39
		C308.77,17.77,310.44,18.57,311.16,20.72z"/>
	<path d="M672.81,35c-4.55-3.42-9.86-4.52-15.48-4.64c-1.99,0.17-3.99,0.22-5.95,0.54c-3.05,0.49-4.43,2.34-3.38,5.28
		c4,11.25,3.81,23.13,5.58,34.71c0.29,1.88-0.6,4.9,2.85,4.54c2.79-0.29,2.89-2.69,2.73-4.95c-0.36-5.06-0.81-10.11-1.97-15.07
		c-0.43-1.86-0.65-3.68,2.18-3.81c4.46-0.2,8.23-2.37,12.1-4.21C677.21,44.65,677.88,38.81,672.81,35z M661.84,44.68
		c-2.69,1.3-4.53-0.25-6.03-1.96c-1.51-1.74-1.54-4.2-0.4-5.96c1.37-2.12,3.77-1.56,5.81-0.6c2.89,1.37,6.35,1.75,8.84,4.74
		C667.16,42.23,664.47,43.4,661.84,44.68z"/>
	<path d="M29.13,34.75c-4.48-3.19-9.62-4.27-13.48-4.26c-11.19-0.15-12.02,0.9-9.41,9.71c0.28,0.94,0.42,1.92,0.54,2.89
		c1.15,9.24,2.24,18.48,3.45,27.71c0.25,1.87-0.68,4.97,2.77,4.64c3.1-0.3,2.94-2.98,2.78-5.37c-0.34-4.9-0.79-9.79-1.93-14.58
		c-0.53-2.22-0.39-3.84,2.59-3.96c4.28-0.17,7.89-2.34,11.62-4.11C34,44.59,34.54,38.6,29.13,34.75z M18.5,44.67
		c-2.69,1.31-4.53-0.23-6.03-1.94c-1.52-1.73-1.54-4.19-0.42-5.96c1.36-2.14,3.76-1.58,5.8-0.62c2.9,1.36,6.34,1.75,8.87,4.73
		C23.8,42.22,21.12,43.39,18.5,44.67z"/>
	<path d="M65.72,42.91c-1.48-2.78-3.81-0.98-5.62-0.21c-3.4,1.44-6.58,3.52-10.77,3.2c0.52-2.38,2.47-2.82,3.97-3.63
		c3.38-1.84,5.48-4.56,6.63-8.16c0.62-1.95,0.37-3.54-1.09-4.91c-5.39-5.04-13.55-3.39-16.46,3.42c-1.8,4.23-1.64,8.59-0.19,12.91
		c1.37,4.09,4.25,5.92,8.64,5.89c4.31-0.03,8.07-1.62,11.76-3.46C64.63,46.94,67.3,45.87,65.72,42.91z M46.91,36.28
		c0.29-2.52,1.86-3.99,4.36-4.19c1.45,0.2,3.18,0.2,2.62,2.09c-0.68,2.27-2.32,3.92-4.85,4.21C47.67,38.54,46.77,37.47,46.91,36.28z
		"/>
	<path d="M810.99,42.99c-1.55-3.04-4.02-0.89-5.99-0.08c-3.29,1.34-6.36,3.35-10.34,3.02c0.33-2.42,2.35-2.83,3.84-3.62
		c3.59-1.9,5.7-4.82,6.83-8.59c0.53-1.77,0.11-3.24-1.17-4.47c-5.12-4.93-13.21-3.56-16.28,2.86c-2.07,4.33-1.91,8.87-0.44,13.35
		c1.34,4.07,4.18,5.99,8.59,5.96c4.12-0.04,7.78-1.41,11.31-3.24C809.44,47.09,812.64,46.24,810.99,42.99z M792.16,36.07
		c0.34-2.24,1.76-3.83,4.26-3.92c1.25-0.04,3.08-0.09,2.76,1.77c-0.41,2.39-2.26,3.8-4.4,4.47
		C792.89,38.48,791.95,37.45,792.16,36.07z"/>
	<path d="M637.97,51.57c-1.8-3.74-2.39-7.78-3.44-11.71c-0.9-3.36-2.47-5.93-6.67-3.82c-1.58,0.79-2.48-0.26-3.42-1.17
		c-2.87-2.79-6.34-3.18-9.61-1.38c-4.09,2.25-7.54,5.35-8.2,9.8c-0.11,6.73,5.92,10.55,11.83,8.15c3.18-1.29,5.39-3.73,7.74-6.03
		c2.37-2.32,3.79-1.45,4.37,1.39c0.49,2.38,0.25,4.89,1.57,7.11c0.97,1.62,1.94,3.26,4.22,2.21
		C638.37,55.19,638.85,53.41,637.97,51.57z M614.31,47.07c-1.22,0.02-2.16-1.73-1.97-3.15c0.43-3.24,2.4-5.79,5.86-6.26
		c1.98-0.27,3.96,0.8,4.44,3.04C623.05,42.67,618.04,46.84,614.31,47.07z"/>
	<path d="M456.63,28.18c-2.18-0.86-3.72-0.51-5.47,0.74c-7.68,5.47-6.65,20.39,1.76,24.92c1.21,0.65,2.48,0.88,3.91,0.45
		c2.18,0.22,4.02-0.38,5.62-2.18C469.59,44.11,466.64,32.1,456.63,28.18z M460.31,40.6c-0.72,2.72-0.27,6.97-3.72,7.18
		c-3.89,0.23-3.7-4.27-4.57-7.01c-0.78-2.47,0.09-4.8,2.02-6.66c0.91-0.87,1.8-0.56,2.64,0.08C458.82,35.8,460.97,37.42,460.31,40.6
		z"/>
	<path d="M949.14,28.18c-2.18-0.86-3.72-0.51-5.47,0.74c-7.68,5.47-6.65,20.39,1.76,24.92c1.21,0.65,2.48,0.88,3.91,0.45
		c2.18,0.22,4.02-0.38,5.62-2.18C962.1,44.11,959.15,32.1,949.14,28.18z M948.86,47.7c-3.97,0.1-3.51-5.05-4.63-7.84
		c0.24-2.78,0.69-5.97,3.4-6.03c2.76-0.06,5.26,2.41,5.14,5.52C952.64,42.59,953,47.6,948.86,47.7z"/>
</g>
</svg>
