<?xml version="1.0" encoding="utf-8"?>
<!-- Generator: Adobe Illustrator 27.9.1, SVG Export Plug-In . SVG Version: 6.00 Build 0)  -->
<svg version="1.1" id="Layer_1" xmlns="http://www.w3.org/2000/svg" xmlns:xlink="http://www.w3.org/1999/xlink" x="0px" y="0px"
	 viewBox="0 0 500 200" style="enable-background:new 0 0 500 200;" xml:space="preserve">
<style type="text/css">
	.st0{fill:none;stroke:#000000;stroke-miterlimit:10;}
</style>
<g>
	<path d="M-97.12,12.77c0,1.69,4.95,0.13,8.2,0c3.25-0.13,5.59,1.56,7.29,1.82c1.7,0.26,7.68-2.61,9.64,1.43
		c1.95,4.03-9.5,13.15-10.55,16.14c-1.04,2.99-1.04,4.3,7.94,0.91c8.98-3.39,15.62-11.59,20.7-14.58s9.5-7.16,12.76-7.03
		c2.1,0.08,4.48,1.97,7.03,3.81l-0.59-11.1h4.43l1.53,14.28c5.21,2.38,18.44,8.07,23.15,9.4c5.08,1.44,26.04,4.3,35.15,4.43
		c3.48,0.05,5.99,0,8.03-0.08c0-0.01-7.57-12.33-8.68-17.01c-1.11-4.68-1.36-10.72-1.62-17.01C27.04-8.1,26.7-21.11,26.7-21.11
		s5.78-0.08,8.76-0.08s12.92,2.13,12.92,2.13L47.02-9.4l-14.44-3.52l0.57,10.35L44.4-1.79c0,0-2.05,8.99-0.23,15.01
		s8.18,18.5,8.19,18.5c4.3-0.04,9.28-0.21,13.52-1.12c6.64-1.43,13.54-2.61,18.62-4.04c5.08-1.43,10.42-4.42,11.07-8.2
		c0.65-3.78,0.04-4.14-1.02-6.47c0,0-7.08-15.83-10.85-20.5c-3.77-4.67-14.92-14.92-18.84-17.18c-3.92-2.26-11.28-3.98-12.63-4.65
		c-1.35-0.67-4.48-1.82-8.81-2.16c-5.74-0.45-13.2,0.08-14.62,0.45c-1.3,0.34-12.19,1.83-17.03,2.99l0.64,1.76
		c0,0,7.52,27.03,0,35.7C4.89,16.97-3.7,15.18-3.7,15.18l-1.65-7.94c0,0,14.03-3.24,14.09-12.77c0.06-9.53-3.77-13.9-6.02-15.95
		c-1.23-1.12-3.54-2.79-5.37-4.07c-5.57,1.37-11.09,2.77-12.97,3.55c-3.78,1.56-10.81,6.38-14.06,7.55
		c-1.06,0.38-1.88,0.94-2.62,1.54l2.53,9.77l-4.64,0.84l-1.67-7.88c-0.32,0.12-0.65,0.21-1.02,0.28c-3.12,0.52-5.08,3.52-6.9,4.04
		s-5.34,0.91-9.64,1.69c-4.3,0.78-6.51,3.23-9.37,4.03c-2.87,0.79-14.71,2.88-20.83,5.22C-89.97,7.42-97.13,11.06-97.12,12.77z
		 M-22.79-7.1l17.43-8.16l3.41,8.03c0,0-6.2,1.55-8.29,3.04c-2.09,1.48-6.2,4.11-6.2,6.95c0,2.83,0.07,8.77,1.21,11.8
		c1.14,3.03,2.9,8.29,2.9,8.29l-3.37-1.28L-20.36,2L-22.79-7.1z"/>
	<g id="MBIRfr.tif">
		
			<image style="overflow:visible;" width="755" height="271" id="Layer_1_00000016796801445587785890000002100719477183442323_" xlink:href="78FB2A8F525D6CBE.png"  transform="matrix(-0.2649 0 0 0.2649 100 -35.894)">
		</image>
	</g>
</g>
<path class="st0" d="M250,138.35c-25.07,0-43.76-76.71-68.83-76.71s-43.76,76.71-68.83,76.71S60.38,73.1,43.51,61.65
	S14.69,77.39,14.69,100s11.95,49.81,28.82,38.35s43.76-76.71,68.83-76.71s43.76,76.71,68.83,76.71S224.93,61.65,250,61.65
	s43.76,76.71,68.83,76.71c25.07,0,43.76-76.71,68.83-76.71s51.96,65.26,68.83,76.71c16.87,11.45,28.82-15.74,28.82-38.35
	s-11.95-49.81-28.82-38.35c-16.87,11.45-43.76,76.71-68.83,76.71s-43.76-76.71-68.83-76.71C293.76,61.65,275.07,138.35,250,138.35"
	/>
</svg>
