<?xml version="1.0" encoding="utf-8"?>
<!-- Generator: Adobe Illustrator 27.9.1, SVG Export Plug-In . SVG Version: 6.00 Build 0)  -->
<svg version="1.1" id="Layer_2_00000117638581634121480100000015305327516338520218_"
	 xmlns="http://www.w3.org/2000/svg" xmlns:xlink="http://www.w3.org/1999/xlink" x="0px" y="0px" viewBox="0 0 861 2303"
	 style="enable-background:new 0 0 861 2303;" xml:space="preserve">
<polygon points="51.16,1015.95 85.17,1134.45 110.41,1210.15 329.84,1302.32 348.5,1329.75 341.91,1451.53 277.18,1497.62 
	270.6,1523.95 88.46,1562.35 116.67,1635.01 773.5,1635.01 825.77,1591.97 766.53,1559.06 818.09,1521.75 849.91,1436.72 
	772.01,1193.69 733.61,1151.5 762.14,1087.27 724.83,1047.77 690.82,999.32 676.56,891.97 592.07,830.52 501.01,855.76 
	450.53,899.65 450.53,984.13 370.44,999.32 335.33,1076.29 233.29,1066.42 183.92,988.52 166.36,879.9 193.79,848.08 176.24,730.68 
	145.52,762.5 145.52,789.93 68.71,775.66 12.76,888.68 62.13,935.85 "/>
</svg>
