<?xml version="1.0" encoding="utf-8"?>
<!-- Generator: Adobe Illustrator 27.9.1, SVG Export Plug-In . SVG Version: 6.00 Build 0)  -->
<svg version="1.1" xmlns="http://www.w3.org/2000/svg" xmlns:xlink="http://www.w3.org/1999/xlink" x="0px" y="0px"
	 viewBox="0 0 167.82 169.55" style="enable-background:new 0 0 167.82 169.55;" xml:space="preserve">
<g id="Layer_1">
</g>
<g id="Layer_2">
	<path d="M0,10.03c0,0,47.75,13.84,100.35,9.34S167.82,0,167.82,0s-6.57,20.42-11.07,30.1c-4.5,9.69-10.38,20.07-10.38,20.07
		s-3.11,16.26-3.11,32.53s11.07,63.67,11.07,63.67s-5.54,16.61-39.45,23.18l-5.88-7.61l-3.11-6.57l-1.73-3.81
		c0,0,1.73-7.61-3.11-9.34c0,0,2.08-6.23-2.08-8.3c-4.15-2.08-4.84,0.35-4.84,0.35s-1.38-7.27-10.21-12.46
		c-8.82-5.19-15.4-20.07-15.4-20.07l-11.07-9.34l-11.07-3.81c0,0,1.38-3.81-8.3-23.18S1.73,16.61,0,10.03z"/>
</g>
</svg>
